<svg xmlns="http://www.w3.org/2000/svg" xmlns:xlink="http://www.w3.org/1999/xlink" width="750" zoomAndPan="magnify" viewBox="0 0 562.5 374.999991" height="500" preserveAspectRatio="xMidYMid meet" version="1.0"><defs><clipPath id="31a1e32d4b"><path d="M 77.375 0.167969 L 484.265625 0.167969 L 484.265625 371 L 77.375 371 Z M 77.375 0.167969 " clip-rule="nonzero"/></clipPath><clipPath id="5abe7a7486"><path d="M 153 94 L 420 94 L 420 374.832031 L 153 374.832031 Z M 153 94 " clip-rule="nonzero"/></clipPath></defs><g clip-path="url(#31a1e32d4b)"><path fill="#7ae582" d="M 130.207031 63.859375 C 130.253906 64.03125 130.347656 64.117188 130.480469 64.117188 C 130.609375 64.117188 130.734375 64.0625 130.847656 63.960938 C 130.964844 63.855469 131.019531 63.742188 131.019531 63.613281 L 130.957031 61.554688 C 131.542969 61.933594 132.054688 62.332031 132.496094 62.75 C 132.933594 63.167969 133.234375 63.566406 133.390625 63.945312 C 133.484375 64.058594 133.597656 64.117188 133.726562 64.117188 C 133.859375 64.117188 133.972656 64.074219 134.066406 63.992188 C 134.160156 63.910156 134.207031 63.824219 134.207031 63.730469 C 134.207031 63.4375 133.957031 63.023438 133.464844 62.492188 C 132.972656 61.957031 132.394531 61.460938 131.726562 60.996094 C 132.105469 60.867188 132.496094 60.671875 132.898438 60.410156 C 133.296875 60.148438 133.632812 59.851562 133.90625 59.511719 C 134.175781 59.171875 134.3125 58.851562 134.3125 58.554688 C 134.3125 58.257812 134.1875 57.984375 133.941406 57.730469 C 133.695312 57.476562 133.417969 57.285156 133.105469 57.152344 C 132.796875 57.019531 132.503906 56.953125 132.230469 56.953125 C 131.703125 56.953125 131.246094 57.042969 130.859375 57.222656 C 130.378906 57.421875 130.140625 57.792969 130.140625 58.335938 L 130.171875 61.039062 C 130.171875 61.976562 130.183594 62.914062 130.207031 63.859375 Z M 130.988281 57.972656 C 131.230469 57.871094 131.558594 57.820312 131.96875 57.820312 C 132.378906 57.820312 132.734375 57.902344 133.035156 58.066406 C 133.335938 58.234375 133.488281 58.464844 133.488281 58.769531 C 133.488281 59.074219 133.1875 59.414062 132.589844 59.792969 C 131.996094 60.171875 131.457031 60.375 130.976562 60.394531 C 130.976562 59.144531 130.980469 58.335938 130.988281 57.972656 Z M 336.0625 64.8125 L 332.304688 64.8125 L 332.304688 63.472656 L 336.0625 63.472656 L 336.0625 59.714844 L 337.402344 59.714844 L 337.402344 63.472656 L 341.160156 63.472656 L 341.160156 64.8125 L 337.402344 64.8125 L 337.402344 68.574219 L 336.0625 68.574219 Z M 194.296875 19.984375 L 190.539062 19.984375 L 190.539062 18.644531 L 194.296875 18.644531 L 194.296875 14.882812 L 195.636719 14.882812 L 195.636719 18.644531 L 199.394531 18.644531 L 199.394531 19.984375 L 195.636719 19.984375 L 195.636719 23.742188 L 194.296875 23.742188 Z M 136.113281 63.386719 C 136.492188 63.851562 137.019531 64.082031 137.699219 64.082031 C 138.214844 64.046875 138.667969 63.839844 139.0625 63.460938 C 139.820312 62.703125 140.199219 61.664062 140.199219 60.335938 C 140.199219 59.007812 139.855469 58.039062 139.171875 57.425781 C 138.820312 57.101562 138.394531 56.941406 137.894531 56.941406 C 136.898438 56.941406 136.175781 57.261719 135.71875 57.894531 C 135.28125 58.488281 135.0625 59.242188 135.0625 60.160156 C 135.0625 60.695312 135.144531 61.25 135.304688 61.828125 C 135.464844 62.402344 135.734375 62.921875 136.113281 63.386719 Z M 136.027344 59.195312 C 136.265625 58.285156 136.859375 57.832031 137.820312 57.832031 C 138.355469 57.832031 138.734375 58.046875 138.960938 58.476562 C 139.1875 58.902344 139.296875 59.511719 139.296875 60.296875 C 139.296875 60.742188 139.253906 61.179688 139.160156 61.617188 C 139.066406 62.054688 138.894531 62.414062 138.644531 62.695312 C 138.394531 62.976562 138.113281 63.117188 137.796875 63.117188 C 137.484375 63.117188 137.214844 63.03125 136.992188 62.859375 C 136.613281 62.589844 136.328125 62.117188 136.136719 61.445312 C 135.992188 60.945312 135.921875 60.507812 135.921875 60.125 C 135.921875 59.746094 135.957031 59.4375 136.027344 59.195312 Z M 349.054688 13.109375 L 342.851562 13.109375 L 342.851562 11.769531 L 349.054688 11.769531 L 349.054688 5.566406 L 350.394531 5.566406 L 350.394531 11.769531 L 356.597656 11.769531 L 356.597656 13.109375 L 350.394531 13.109375 L 350.394531 19.3125 L 349.054688 19.3125 Z M 128.46875 60.554688 C 128.660156 60.40625 128.824219 60.175781 128.949219 59.863281 C 129.078125 59.554688 129.144531 59.164062 129.144531 58.699219 C 129.144531 58.136719 128.914062 57.707031 128.453125 57.417969 C 127.992188 57.128906 127.425781 56.984375 126.753906 56.984375 C 126.296875 56.984375 125.925781 57.023438 125.648438 57.097656 C 125.371094 57.171875 125.210938 57.324219 125.175781 57.554688 C 125.140625 57.925781 125.121094 58.738281 125.121094 59.992188 C 125.121094 61.246094 125.148438 62.242188 125.199219 62.980469 C 125.199219 63.109375 125.203125 63.226562 125.207031 63.332031 C 125.214844 63.367188 125.222656 63.417969 125.222656 63.484375 C 125.226562 63.546875 125.234375 63.59375 125.242188 63.628906 C 125.246094 63.660156 125.257812 63.699219 125.273438 63.75 C 125.289062 63.800781 125.300781 63.839844 125.316406 63.863281 C 125.332031 63.890625 125.359375 63.929688 125.402344 63.988281 C 125.445312 64.042969 125.542969 64.074219 125.703125 64.074219 C 125.945312 64.074219 126.070312 63.886719 126.078125 63.515625 C 126.085938 63.144531 126.070312 62.242188 126.035156 60.8125 C 126.464844 60.882812 126.808594 60.921875 127.074219 60.921875 C 127.6875 60.921875 128.152344 60.796875 128.46875 60.554688 Z M 126.421875 60.0625 C 126.347656 60.046875 126.214844 60.03125 126.023438 60.007812 C 125.996094 59.722656 125.980469 59.402344 125.980469 59.050781 C 125.980469 58.695312 125.996094 58.308594 126.023438 57.886719 C 126.167969 57.820312 126.417969 57.789062 126.773438 57.789062 C 127.132812 57.789062 127.46875 57.875 127.78125 58.042969 C 128.097656 58.210938 128.253906 58.4375 128.253906 58.726562 C 128.253906 59.015625 128.207031 59.289062 128.113281 59.546875 C 128.078125 59.640625 128.019531 59.722656 127.933594 59.792969 C 127.847656 59.867188 127.773438 59.921875 127.71875 59.964844 C 127.660156 60.007812 127.566406 60.039062 127.433594 60.058594 C 127.300781 60.074219 127.210938 60.085938 127.164062 60.089844 C 127.117188 60.09375 127.03125 60.09375 126.898438 60.09375 C 126.765625 60.09375 126.605469 60.082031 126.421875 60.0625 Z M 470.296875 104.046875 L 466.535156 104.046875 L 466.535156 102.707031 L 470.296875 102.707031 L 470.296875 98.945312 L 471.636719 98.945312 L 471.636719 102.707031 L 475.394531 102.707031 L 475.394531 104.046875 L 471.636719 104.046875 L 471.636719 107.804688 L 470.296875 107.804688 Z M 120.867188 86.71875 L 121.328125 86.652344 L 126.660156 91.386719 L 126.671875 91.75 L 127.066406 91.75 L 128.042969 92.613281 L 128.015625 91.75 L 164.003906 91.75 L 164.003906 43.195312 L 120.867188 43.195312 L 120.867188 85.363281 L 120.011719 85.484375 L 120.867188 86.246094 Z M 123.070312 86.40625 L 126.480469 85.925781 L 126.601562 89.542969 Z M 122.210938 44.535156 L 162.664062 44.535156 L 162.664062 90.40625 L 127.96875 90.40625 L 127.769531 84.390625 L 122.210938 85.175781 Z M 128.398438 71.550781 L 156.476562 71.550781 L 156.476562 72.890625 L 128.398438 72.890625 Z M 144.980469 60.105469 C 144.980469 59.984375 145.019531 59.875 145.097656 59.773438 C 145.070312 59.058594 145.058594 58.304688 145.058594 57.511719 C 145.097656 57.339844 145.164062 57.214844 145.253906 57.136719 C 145.34375 57.054688 145.476562 57.007812 145.644531 56.984375 C 146.589844 57.027344 147.613281 57.050781 148.714844 57.050781 C 148.984375 57.105469 149.121094 57.222656 149.121094 57.402344 C 149.121094 57.703125 148.828125 57.878906 148.242188 57.929688 C 148.085938 57.933594 147.914062 57.9375 147.726562 57.9375 L 147.03125 57.9375 C 146.894531 57.9375 146.519531 57.910156 145.902344 57.851562 C 145.902344 58.746094 145.917969 59.363281 145.945312 59.699219 C 146.324219 59.707031 147.054688 59.707031 148.132812 59.707031 C 148.390625 59.757812 148.519531 59.875 148.519531 60.058594 C 148.519531 60.238281 148.417969 60.378906 148.210938 60.480469 C 148.1875 60.496094 148.148438 60.507812 148.089844 60.523438 L 146.234375 60.492188 C 146.121094 60.492188 146.027344 60.5 145.957031 60.511719 L 146 62.355469 C 146 62.773438 145.988281 63.070312 145.96875 63.246094 L 148.457031 63.214844 C 148.683594 63.25 148.800781 63.347656 148.800781 63.503906 C 148.800781 63.613281 148.75 63.71875 148.65625 63.828125 C 148.558594 63.933594 148.445312 64 148.316406 64.03125 L 145.570312 64.074219 C 145.40625 64.074219 145.292969 64.042969 145.226562 63.980469 C 145.164062 63.921875 145.132812 63.820312 145.132812 63.675781 C 145.160156 63.476562 145.175781 63.15625 145.175781 62.710938 L 145.175781 61.960938 L 145.132812 60.382812 C 145.03125 60.320312 144.980469 60.226562 144.980469 60.105469 Z M 150.707031 63.492188 C 150.058594 62.792969 149.730469 61.835938 149.730469 60.625 C 149.730469 59.414062 150.042969 58.515625 150.660156 57.933594 C 151.277344 57.351562 152.019531 57.058594 152.886719 57.058594 C 153.363281 57.058594 153.894531 57.152344 154.472656 57.339844 C 154.601562 57.4375 154.664062 57.546875 154.664062 57.664062 C 154.664062 57.785156 154.605469 57.886719 154.488281 57.976562 C 154.371094 58.066406 154.234375 58.109375 154.085938 58.109375 C 153.699219 58.011719 153.339844 57.960938 153.003906 57.960938 C 152.230469 57.960938 151.644531 58.191406 151.242188 58.648438 C 150.84375 59.105469 150.644531 59.785156 150.644531 60.683594 C 150.644531 61.585938 150.878906 62.289062 151.351562 62.796875 C 151.59375 63.0625 151.882812 63.195312 152.21875 63.195312 C 152.554688 63.195312 153.09375 63.015625 153.828125 62.65625 C 154.085938 62.535156 154.257812 62.476562 154.34375 62.476562 C 154.527344 62.476562 154.621094 62.570312 154.621094 62.765625 C 154.621094 62.957031 154.53125 63.117188 154.355469 63.246094 C 153.738281 63.570312 153.261719 63.785156 152.917969 63.894531 C 152.574219 64.007812 152.277344 64.0625 152.027344 64.0625 C 151.511719 64.0625 151.074219 63.871094 150.707031 63.492188 Z M 90.1875 116.992188 L 83.980469 116.992188 L 83.980469 115.652344 L 90.1875 115.652344 L 90.1875 109.449219 L 91.527344 109.449219 L 91.527344 115.652344 L 97.730469 115.652344 L 97.730469 116.992188 L 91.527344 116.992188 L 91.527344 123.195312 L 90.1875 123.195312 Z M 127.925781 254.632812 L 131.683594 254.632812 L 131.683594 255.976562 L 127.925781 255.976562 L 127.925781 259.734375 L 126.585938 259.734375 L 126.585938 255.976562 L 122.828125 255.976562 L 122.828125 254.632812 L 126.585938 254.632812 L 126.585938 250.875 L 127.925781 250.875 Z M 155.265625 57.851562 C 155.199219 57.78125 155.167969 57.695312 155.167969 57.589844 C 155.167969 57.488281 155.214844 57.386719 155.300781 57.285156 C 155.390625 57.183594 155.5 57.128906 155.628906 57.113281 L 159.972656 57.050781 C 160.179688 57.113281 160.285156 57.21875 160.285156 57.359375 C 160.285156 57.71875 160.136719 57.894531 159.84375 57.894531 C 159.308594 57.894531 158.738281 57.910156 158.140625 57.9375 C 158.101562 58.554688 158.085938 59.015625 158.085938 59.328125 L 158.085938 59.921875 L 158.128906 63.6875 C 158.128906 63.910156 158.070312 64.035156 157.957031 64.074219 C 157.871094 64.101562 157.761719 64.117188 157.636719 64.117188 C 157.425781 64.117188 157.3125 63.996094 157.292969 63.761719 C 157.25 63.210938 157.226562 62.183594 157.226562 60.679688 C 157.226562 59.175781 157.25 58.269531 157.292969 57.960938 C 157.140625 57.96875 156.921875 57.972656 156.625 57.972656 C 156.332031 57.972656 155.96875 57.96875 155.53125 57.960938 C 155.417969 57.960938 155.328125 57.925781 155.265625 57.851562 Z M 128.398438 76.628906 L 156.476562 76.628906 L 156.476562 77.96875 L 128.398438 77.96875 Z M 141.441406 63.59375 C 141.113281 63.25 140.949219 62.75 140.949219 62.101562 C 140.949219 61.992188 141.003906 61.894531 141.117188 61.804688 C 141.226562 61.714844 141.347656 61.671875 141.476562 61.671875 C 141.632812 61.671875 141.730469 61.816406 141.765625 62.109375 C 141.859375 62.941406 142.167969 63.355469 142.699219 63.355469 C 142.832031 63.355469 142.949219 63.308594 143.046875 63.21875 C 143.144531 63.132812 143.214844 63.023438 143.265625 62.898438 C 143.316406 62.773438 143.355469 62.609375 143.382812 62.398438 C 143.425781 62.101562 143.449219 61.742188 143.449219 61.324219 C 143.449219 60.902344 143.394531 60.140625 143.292969 59.03125 C 143.1875 57.925781 143.136719 57.332031 143.136719 57.257812 C 143.136719 57.183594 143.195312 57.105469 143.308594 57.027344 C 143.421875 56.949219 143.535156 56.910156 143.648438 56.910156 C 143.757812 56.910156 143.84375 56.933594 143.902344 56.984375 C 143.964844 57.035156 144 57.09375 144.003906 57.167969 C 144.15625 59.097656 144.230469 60.316406 144.230469 60.828125 C 144.230469 61.339844 144.222656 61.722656 144.210938 61.980469 C 144.195312 62.238281 144.160156 62.515625 144.101562 62.8125 C 144.046875 63.109375 143.964844 63.34375 143.855469 63.515625 C 143.621094 63.914062 143.242188 64.117188 142.71875 64.117188 C 142.195312 64.117188 141.773438 63.941406 141.441406 63.59375 Z M 137.414062 137.019531 L 137.414062 133.257812 L 133.65625 133.257812 L 133.65625 131.917969 L 137.414062 131.917969 L 137.414062 128.160156 L 138.757812 128.160156 L 138.757812 131.917969 L 142.515625 131.917969 L 142.515625 133.257812 L 138.757812 133.257812 L 138.757812 137.019531 Z M 142.4375 108.480469 C 164.308594 108.480469 182.101562 90.6875 182.101562 68.8125 C 182.101562 46.941406 164.308594 29.148438 142.4375 29.148438 C 120.566406 29.148438 102.769531 46.941406 102.769531 68.8125 C 102.769531 90.6875 120.566406 108.480469 142.4375 108.480469 Z M 142.4375 30.488281 C 163.570312 30.488281 180.761719 47.679688 180.761719 68.8125 C 180.761719 89.945312 163.570312 107.140625 142.4375 107.140625 C 121.304688 107.140625 104.109375 89.945312 104.109375 68.8125 C 104.109375 47.679688 121.304688 30.488281 142.4375 30.488281 Z M 444.953125 149.460938 C 423.082031 149.460938 405.289062 167.257812 405.289062 189.128906 C 405.289062 211 423.082031 228.792969 444.953125 228.792969 C 466.828125 228.792969 484.621094 211 484.621094 189.128906 C 484.621094 167.257812 466.828125 149.460938 444.953125 149.460938 Z M 444.953125 227.453125 C 423.824219 227.453125 406.628906 210.261719 406.628906 189.128906 C 406.628906 167.996094 423.824219 150.800781 444.953125 150.800781 C 466.085938 150.800781 483.28125 167.996094 483.28125 189.128906 C 483.28125 210.261719 466.085938 227.453125 444.953125 227.453125 Z M 426.460938 92.382812 L 426.460938 81.851562 C 431.753906 79.226562 435.148438 73.777344 435.148438 67.84375 C 435.148438 59.222656 428.136719 52.207031 419.519531 52.207031 C 410.894531 52.207031 403.878906 59.222656 403.878906 67.84375 C 403.878906 73.777344 407.277344 79.226562 412.574219 81.851562 L 412.574219 92.382812 Z M 425.121094 91.042969 L 413.914062 91.042969 L 413.914062 87.539062 L 425.121094 87.539062 Z M 405.21875 67.84375 C 405.21875 59.960938 411.632812 53.546875 419.519531 53.546875 C 427.398438 53.546875 433.804688 59.960938 433.804688 67.84375 C 433.804688 73.398438 430.550781 78.492188 425.511719 80.820312 L 425.121094 81 L 425.121094 86.199219 L 413.914062 86.199219 L 413.914062 81 L 413.523438 80.820312 C 408.480469 78.492188 405.21875 73.402344 405.21875 67.84375 Z M 405.457031 80.480469 L 406.355469 81.476562 L 400.472656 86.789062 L 399.574219 85.792969 Z M 458.832031 68.8125 C 458.832031 46.941406 441.039062 29.148438 419.167969 29.148438 C 397.292969 29.148438 379.5 46.941406 379.5 68.8125 C 379.5 90.6875 397.292969 108.480469 419.167969 108.480469 C 441.039062 108.480469 458.832031 90.6875 458.832031 68.8125 Z M 380.839844 68.8125 C 380.839844 47.679688 398.035156 30.488281 419.167969 30.488281 C 440.300781 30.488281 457.492188 47.679688 457.492188 68.8125 C 457.492188 89.945312 440.300781 107.140625 419.167969 107.140625 C 398.035156 107.140625 380.839844 89.945312 380.839844 68.8125 Z M 399.792969 68.992188 L 391.867188 68.992188 L 391.867188 67.652344 L 399.792969 67.652344 Z M 410.351562 134.394531 L 404.148438 134.394531 L 404.148438 133.054688 L 410.351562 133.054688 L 410.351562 126.847656 L 411.691406 126.847656 L 411.691406 133.054688 L 417.894531 133.054688 L 417.894531 134.394531 L 411.691406 134.394531 L 411.691406 140.597656 L 410.351562 140.597656 Z M 405.457031 56.265625 L 399.574219 50.953125 L 400.472656 49.957031 L 406.355469 55.269531 Z M 455.4375 168.503906 L 466.441406 174.863281 L 457.1875 178.546875 L 456.691406 177.300781 L 463.375 174.640625 L 455.363281 170.007812 L 449.246094 172.800781 L 448.691406 171.582031 Z M 444.351562 178.972656 L 443.234375 177.355469 L 443.078125 177.144531 C 443.652344 176.910156 444.074219 176.910156 444.34375 177.132812 C 444.492188 177.222656 444.628906 177.234375 444.757812 177.164062 C 444.816406 177.132812 444.859375 177.097656 444.886719 177.054688 C 444.953125 176.949219 444.949219 176.835938 444.878906 176.714844 C 444.609375 176.507812 444.265625 176.398438 443.855469 176.382812 C 443.433594 176.367188 443.003906 176.453125 442.566406 176.632812 L 442.402344 176.410156 C 442.230469 176.285156 442.058594 176.261719 441.890625 176.34375 C 441.808594 176.382812 441.75 176.441406 441.714844 176.519531 C 441.683594 176.597656 441.6875 176.683594 441.734375 176.769531 L 441.90625 176.996094 C 441.613281 177.21875 441.40625 177.480469 441.285156 177.78125 C 441.164062 178.089844 441.125 178.394531 441.167969 178.707031 C 441.210938 179.015625 441.308594 179.265625 441.457031 179.457031 C 441.609375 179.652344 441.765625 179.773438 441.929688 179.832031 C 442.320312 179.960938 442.992188 179.917969 443.925781 179.703125 C 444.09375 180 444.304688 180.324219 444.558594 180.671875 C 444.8125 181.019531 445.011719 181.316406 445.160156 181.558594 C 444.964844 181.617188 444.625 181.632812 444.140625 181.609375 C 443.984375 181.597656 443.898438 181.589844 443.890625 181.589844 C 443.679688 181.582031 443.53125 181.605469 443.453125 181.65625 C 443.371094 181.703125 443.324219 181.773438 443.304688 181.859375 C 443.285156 181.945312 443.300781 182.023438 443.359375 182.097656 C 443.5 182.277344 443.789062 182.351562 444.230469 182.328125 C 444.660156 182.304688 445.074219 182.21875 445.476562 182.066406 L 445.625 182.265625 C 445.78125 182.414062 445.945312 182.429688 446.109375 182.320312 C 446.179688 182.273438 446.226562 182.203125 446.25 182.109375 C 446.273438 182.015625 446.257812 181.929688 446.207031 181.84375 L 446.082031 181.675781 C 446.484375 181.414062 446.792969 181.097656 447.015625 180.734375 C 447.234375 180.375 447.21875 180.023438 446.972656 179.671875 C 446.449219 178.941406 445.589844 178.699219 444.351562 178.972656 Z M 442.191406 179.105469 C 442.027344 178.890625 441.960938 178.625 441.996094 178.308594 C 442.027344 177.992188 442.167969 177.726562 442.410156 177.519531 C 442.449219 177.558594 442.519531 177.648438 442.628906 177.792969 L 443.125 178.507812 L 443.601562 179.144531 C 442.863281 179.335938 442.386719 179.324219 442.191406 179.105469 Z M 445.808594 181.257812 C 445.554688 180.882812 445.324219 180.542969 445.117188 180.25 C 444.910156 179.953125 444.761719 179.722656 444.671875 179.566406 C 445.121094 179.488281 445.476562 179.488281 445.738281 179.570312 C 445.996094 179.644531 446.230469 179.832031 446.441406 180.121094 C 446.648438 180.410156 446.441406 180.785156 445.808594 181.257812 Z M 419.789062 48.996094 L 418.449219 48.996094 L 418.449219 41.070312 L 419.789062 41.070312 Z M 416.683594 183.511719 L 416.683594 204.414062 L 431.324219 213.679688 L 471.636719 195.464844 L 471.636719 174.347656 L 455.542969 165.839844 Z M 431.085938 211.941406 L 418.023438 203.675781 L 418.023438 198.871094 L 423.414062 201.65625 L 424.027344 200.46875 L 418.023438 197.359375 L 418.023438 190.921875 L 424.398438 194.65625 L 425.078125 193.5 L 418.023438 189.367188 L 418.027344 185.15625 L 431.085938 193.394531 Z M 470.296875 181.917969 L 457.570312 187.671875 L 458.125 188.890625 L 470.296875 183.390625 L 470.296875 194.597656 L 432.425781 211.710938 L 432.425781 207.542969 L 443.910156 201.929688 L 443.324219 200.722656 L 432.425781 206.050781 L 432.425781 200.441406 L 447.453125 193.636719 L 446.898438 192.414062 L 432.425781 198.96875 L 432.425781 193.453125 L 470.296875 175.804688 Z M 431.804688 192.261719 L 418.761719 184.039062 L 455.5 167.332031 L 469.460938 174.714844 Z M 113.207031 191.253906 L 111.808594 189.824219 L 112.765625 188.886719 L 114.273438 190.429688 L 116.632812 188.597656 L 117.453125 189.65625 L 115.214844 191.394531 L 117.488281 193.71875 L 116.527344 194.65625 L 114.148438 192.21875 L 111.027344 194.640625 L 110.207031 193.582031 Z M 443.464844 254.636719 L 447.222656 254.636719 L 447.222656 255.976562 L 443.464844 255.976562 L 443.464844 259.734375 L 442.125 259.734375 L 442.125 255.976562 L 438.363281 255.976562 L 438.363281 254.636719 L 442.125 254.636719 L 442.125 250.875 L 443.464844 250.875 Z M 454.550781 197.132812 L 454.03125 195.898438 L 464.964844 191.300781 L 465.488281 192.535156 Z M 438.488281 186.335938 L 439.035156 187.558594 L 432.421875 190.507812 L 421.242188 183.808594 L 428.136719 180.671875 L 428.691406 181.890625 L 424.121094 183.96875 L 432.515625 189 Z M 292.207031 48.507812 L 292.34375 48.128906 C 292.355469 47.839844 292.25 47.652344 292.023438 47.570312 C 291.917969 47.53125 291.804688 47.535156 291.6875 47.578125 C 291.570312 47.625 291.476562 47.710938 291.410156 47.835938 L 291.273438 48.214844 C 290.800781 48.144531 290.347656 48.199219 289.914062 48.375 C 289.480469 48.546875 289.101562 48.800781 288.777344 49.128906 C 288.457031 49.460938 288.234375 49.789062 288.117188 50.117188 C 288 50.445312 287.960938 50.71875 288.003906 50.9375 C 288.121094 51.460938 288.644531 52.113281 289.566406 52.90625 C 289.335938 53.378906 289.097656 53.933594 288.863281 54.5625 C 288.625 55.195312 288.410156 55.71875 288.21875 56.136719 C 288.007812 55.960938 287.746094 55.582031 287.4375 55.003906 C 287.34375 54.816406 287.292969 54.71875 287.285156 54.707031 C 287.148438 54.464844 287.027344 54.320312 286.914062 54.28125 C 286.800781 54.242188 286.6875 54.25 286.574219 54.3125 C 286.460938 54.371094 286.378906 54.46875 286.332031 54.605469 C 286.214844 54.929688 286.316406 55.328125 286.640625 55.804688 C 286.960938 56.28125 287.355469 56.6875 287.824219 57.019531 L 287.6875 57.394531 C 287.617188 57.734375 287.710938 57.953125 287.972656 58.046875 C 288.078125 58.085938 288.199219 58.074219 288.335938 58.011719 C 288.46875 57.945312 288.570312 57.839844 288.632812 57.691406 L 288.75 57.367188 C 289.390625 57.597656 290.03125 57.667969 290.675781 57.574219 C 291.316406 57.480469 291.757812 57.097656 292.003906 56.421875 C 292.503906 55.027344 292.097656 53.773438 290.769531 52.652344 L 291.863281 49.875 L 291.996094 49.511719 C 292.730469 49.867188 293.070312 50.300781 293.019531 50.8125 C 293.03125 51.058594 293.132812 51.21875 293.320312 51.285156 C 293.410156 51.320312 293.492188 51.328125 293.570312 51.316406 C 293.753906 51.28125 293.894531 51.164062 293.988281 50.960938 C 294.015625 50.464844 293.863281 49.992188 293.535156 49.550781 C 293.207031 49.105469 292.765625 48.757812 292.207031 48.507812 Z M 291.125 54.824219 C 291.234375 55.207031 291.191406 55.675781 290.988281 56.230469 C 290.789062 56.785156 290.148438 56.910156 289.070312 56.613281 C 289.34375 55.929688 289.585938 55.320312 289.796875 54.785156 C 290.003906 54.253906 290.167969 53.855469 290.292969 53.59375 C 290.738281 54.027344 291.011719 54.4375 291.125 54.824219 Z M 290.878906 49.691406 L 290.402344 50.886719 L 289.996094 52.007812 C 289.234375 51.417969 288.910156 50.921875 289.027344 50.515625 C 289.160156 50.148438 289.421875 49.828125 289.816406 49.558594 C 290.207031 49.285156 290.613281 49.171875 291.035156 49.210938 C 291.019531 49.289062 290.964844 49.445312 290.878906 49.691406 Z M 294.476562 42.253906 C 288 39.917969 280.832031 43.289062 278.496094 49.761719 C 276.160156 56.238281 279.527344 63.40625 286.003906 65.742188 C 287.398438 66.246094 288.824219 66.484375 290.226562 66.484375 C 295.34375 66.484375 300.152344 63.316406 301.984375 58.234375 C 304.320312 51.757812 300.949219 44.589844 294.476562 42.253906 Z M 300.722656 57.777344 C 298.640625 63.558594 292.238281 66.566406 286.460938 64.480469 C 280.679688 62.394531 277.671875 55.996094 279.757812 50.21875 C 281.394531 45.679688 285.683594 42.851562 290.25 42.851562 C 291.503906 42.851562 292.777344 43.066406 294.019531 43.515625 C 299.800781 45.597656 302.808594 52 300.722656 57.777344 Z M 117.042969 149.460938 C 95.171875 149.460938 77.375 167.253906 77.375 189.128906 C 77.375 211 95.171875 228.792969 117.042969 228.792969 C 138.914062 228.792969 156.710938 211 156.710938 189.128906 C 156.710938 167.253906 138.914062 149.460938 117.042969 149.460938 Z M 117.042969 227.453125 C 95.910156 227.453125 78.71875 210.261719 78.71875 189.128906 C 78.71875 167.996094 95.910156 150.800781 117.042969 150.800781 C 138.175781 150.800781 155.367188 167.996094 155.367188 189.128906 C 155.367188 210.261719 138.175781 227.453125 117.042969 227.453125 Z M 432.777344 56.265625 L 431.878906 55.269531 L 437.761719 49.957031 L 438.660156 50.953125 Z M 286.015625 25.3125 C 286.417969 25.609375 286.863281 25.824219 287.347656 25.957031 L 287.347656 26.308594 C 287.386719 26.609375 287.53125 26.757812 287.773438 26.757812 C 287.871094 26.757812 287.96875 26.710938 288.058594 26.621094 C 288.152344 26.527344 288.203125 26.410156 288.210938 26.269531 L 288.210938 25.96875 C 288.800781 25.96875 289.347656 25.835938 289.847656 25.570312 C 290.347656 25.300781 290.597656 24.855469 290.597656 24.230469 C 290.597656 22.9375 289.890625 22.027344 288.472656 21.503906 L 288.546875 18.902344 L 288.546875 18.5625 C 289.257812 18.640625 289.664062 18.894531 289.773438 19.328125 C 289.855469 19.527344 289.988281 19.628906 290.160156 19.628906 C 290.246094 19.628906 290.316406 19.609375 290.375 19.578125 C 290.515625 19.492188 290.59375 19.355469 290.613281 19.164062 C 290.488281 18.746094 290.222656 18.40625 289.824219 18.136719 C 289.421875 17.871094 288.957031 17.71875 288.421875 17.675781 L 288.421875 17.324219 C 288.347656 17.082031 288.207031 16.960938 287.996094 16.960938 C 287.898438 16.960938 287.804688 16.996094 287.722656 17.070312 C 287.636719 17.140625 287.589844 17.238281 287.570312 17.363281 L 287.570312 17.714844 C 287.164062 17.796875 286.804688 17.972656 286.503906 18.246094 C 286.199219 18.515625 285.960938 18.835938 285.796875 19.203125 C 285.628906 19.570312 285.546875 19.902344 285.546875 20.207031 C 285.546875 20.511719 285.59375 20.75 285.695312 20.914062 C 285.945312 21.308594 286.566406 21.691406 287.558594 22.066406 C 287.507812 22.523438 287.480469 23.046875 287.472656 23.636719 C 287.464844 24.226562 287.441406 24.71875 287.410156 25.117188 C 287.183594 25.035156 286.859375 24.800781 286.433594 24.417969 C 286.300781 24.292969 286.230469 24.226562 286.222656 24.21875 C 286.035156 24.058594 285.894531 23.980469 285.789062 23.980469 C 285.683594 23.980469 285.59375 24.023438 285.519531 24.105469 C 285.445312 24.1875 285.40625 24.292969 285.40625 24.417969 C 285.40625 24.71875 285.609375 25.015625 286.015625 25.3125 Z M 288.304688 23.542969 C 288.316406 23.042969 288.335938 22.667969 288.359375 22.417969 C 288.851562 22.640625 289.199219 22.898438 289.40625 23.179688 C 289.609375 23.464844 289.710938 23.863281 289.710938 24.375 C 289.710938 24.886719 289.222656 25.179688 288.246094 25.257812 C 288.273438 24.613281 288.289062 24.042969 288.304688 23.542969 Z M 286.410156 20.265625 C 286.410156 19.921875 286.527344 19.582031 286.773438 19.246094 C 287.011719 18.90625 287.3125 18.691406 287.671875 18.601562 C 287.679688 18.667969 287.683594 18.8125 287.683594 19.039062 L 287.648438 20.164062 L 287.648438 21.203125 C 286.847656 20.945312 286.433594 20.632812 286.410156 20.265625 Z M 131.070312 164.832031 C 131.070312 164.460938 130.769531 164.160156 130.398438 164.160156 C 130.027344 164.160156 129.726562 164.460938 129.726562 164.832031 L 129.726562 168.703125 L 100.671875 171.460938 L 100.671875 166.582031 C 100.671875 166.210938 100.371094 165.914062 100.003906 165.914062 C 99.632812 165.914062 99.332031 166.210938 99.332031 166.582031 L 99.332031 171.589844 L 93.441406 172.148438 L 90.113281 206.710938 L 136.003906 202.652344 L 138.820312 167.839844 L 131.070312 168.574219 Z M 93.742188 182.980469 L 100.722656 182.359375 L 100.222656 188.296875 L 93.171875 188.894531 Z M 98.855469 204.589844 L 91.601562 205.234375 L 92.269531 198.277344 L 99.433594 197.695312 Z M 99.546875 196.34375 L 92.402344 196.921875 L 93.042969 190.253906 L 100.109375 189.652344 Z M 107.714844 203.808594 L 100.210938 204.472656 L 100.789062 197.585938 L 108.335938 196.972656 Z M 100.902344 196.230469 L 101.464844 189.539062 L 109.074219 188.894531 L 108.460938 195.621094 Z M 101.578125 188.183594 L 102.078125 182.238281 L 109.742188 181.558594 L 109.195312 187.539062 Z M 117.140625 202.976562 L 109.070312 203.6875 L 109.691406 196.863281 L 117.757812 196.210938 Z M 117.882812 194.855469 L 109.816406 195.507812 L 110.429688 188.777344 L 118.496094 188.09375 Z M 110.554688 187.421875 L 111.101562 181.4375 L 119.171875 180.71875 L 118.621094 186.738281 Z M 126.636719 202.136719 L 118.496094 202.855469 L 119.113281 196.097656 L 127.25 195.441406 Z M 127.371094 194.085938 L 119.238281 194.746094 L 119.855469 187.976562 L 127.992188 187.289062 Z M 119.976562 186.621094 L 120.527344 180.597656 L 128.667969 179.875 L 128.117188 185.933594 Z M 134.757812 201.417969 L 127.996094 202.015625 L 128.605469 195.328125 L 135.292969 194.789062 Z M 135.402344 193.433594 L 128.730469 193.976562 L 129.351562 187.171875 L 135.953125 186.613281 Z M 136.066406 185.257812 L 129.472656 185.816406 L 130.027344 179.753906 L 136.558594 179.171875 Z M 137.351562 169.324219 L 136.667969 177.816406 L 93.875 181.621094 L 94.667969 173.378906 L 99.332031 172.933594 L 99.332031 175.628906 C 98.808594 175.878906 98.445312 176.410156 98.445312 177.03125 C 98.445312 177.890625 99.140625 178.585938 100.003906 178.585938 C 100.863281 178.585938 101.558594 177.890625 101.558594 177.03125 C 101.558594 176.410156 101.195312 175.878906 100.671875 175.628906 L 100.671875 172.808594 L 129.726562 170.046875 L 129.726562 173.40625 C 129.203125 173.660156 128.839844 174.1875 128.839844 174.808594 C 128.839844 175.667969 129.539062 176.367188 130.398438 176.367188 C 131.257812 176.367188 131.957031 175.667969 131.957031 174.808594 C 131.957031 174.1875 131.59375 173.660156 131.070312 173.40625 L 131.070312 169.921875 Z M 432.777344 80.480469 L 438.660156 85.792969 L 437.761719 86.789062 L 431.878906 81.476562 Z M 438.542969 67.652344 L 446.46875 67.652344 L 446.46875 68.992188 L 438.542969 68.992188 Z M 364.890625 353.683594 L 349.074219 347.425781 C 347.484375 346.773438 346.179688 345.578125 345.386719 344.058594 L 343.863281 340.945312 L 346.160156 340.46875 C 346.375 340.425781 346.5 340.191406 346.429688 339.988281 L 315.203125 259.734375 L 312.296875 252.316406 C 311.421875 250.09375 309.695312 248.304688 307.507812 247.347656 L 251.222656 219.421875 L 251.222656 198.171875 L 255.175781 198.804688 C 256.335938 199.929688 256.765625 201.621094 258.300781 202.128906 C 260 202.691406 261.761719 202.996094 263.601562 202.976562 C 264.941406 202.960938 266.273438 202.683594 267.515625 202.183594 L 298.820312 189 C 299.65625 189.121094 300.503906 189.207031 301.347656 189.238281 C 303.414062 189.292969 305.488281 189.113281 307.484375 188.578125 C 307.480469 188.578125 307.480469 188.578125 307.476562 188.578125 C 310.445312 188.03125 313.082031 186.664062 315.253906 184.332031 C 315.65625 183.90625 316.273438 183.734375 316.851562 183.859375 L 324.054688 185.441406 C 324.851562 185.621094 325.65625 185.199219 325.96875 184.449219 L 326.898438 182.203125 C 326.898438 182.203125 326.902344 182.203125 326.902344 182.203125 C 326.902344 182.203125 326.898438 182.203125 326.898438 182.203125 L 328.121094 180.414062 L 328.402344 179.738281 C 328.617188 179.230469 328.5625 178.648438 328.269531 178.183594 L 326.328125 175.484375 C 325.808594 174.667969 325.011719 174.070312 324.09375 173.785156 L 318.320312 172.421875 C 317.613281 172.210938 316.863281 172.21875 316.164062 172.460938 L 307.617188 176.429688 C 306.550781 176.757812 305.480469 177.089844 304.414062 177.425781 L 267.292969 177.726562 C 266.730469 177.738281 266.175781 177.511719 265.773438 177.121094 L 255.046875 163.695312 L 255.722656 163.074219 C 255.996094 162.824219 256.011719 162.402344 255.761719 162.128906 L 251.226562 157.191406 L 251.226562 151.273438 C 251.226562 151.113281 251.199219 150.945312 251.160156 150.792969 L 245.050781 127.78125 C 244.683594 126.398438 243.78125 125.234375 242.558594 124.539062 L 241.726562 113.179688 L 245.910156 113.976562 C 245.910156 113.976562 248.6875 111.316406 251.183594 105.535156 C 251.1875 105.53125 251.1875 105.53125 251.191406 105.53125 C 251.1875 105.53125 251.1875 105.53125 251.1875 105.527344 C 251.59375 104.582031 251.890625 103.515625 252.253906 102.425781 L 252.253906 102.417969 C 252.34375 102.152344 252.734375 101.796875 252.820312 101.519531 C 252.886719 101.523438 252.949219 101.535156 253.015625 101.535156 C 253.371094 101.527344 253.742188 101.441406 254.082031 101.195312 C 254.082031 101.191406 254.078125 101.1875 254.074219 101.1875 C 259.796875 101.664062 260.578125 96.714844 257.777344 90.589844 C 257.859375 90.4375 257.941406 90.289062 258.023438 90.132812 C 258.03125 90.121094 258.027344 90.101562 258.035156 90.085938 C 258.046875 90.054688 258.066406 90.027344 258.074219 89.996094 C 258.082031 89.964844 258.074219 89.933594 258.078125 89.90625 C 258.082031 89.867188 258.085938 89.832031 258.082031 89.792969 C 258.078125 89.730469 258.066406 89.671875 258.046875 89.613281 C 258.039062 89.59375 258.039062 89.566406 258.03125 89.546875 C 258.027344 89.535156 258.015625 89.53125 258.011719 89.523438 C 257.976562 89.457031 257.929688 89.402344 257.878906 89.351562 C 257.863281 89.335938 257.851562 89.316406 257.835938 89.304688 C 257.765625 89.25 257.679688 89.203125 257.585938 89.179688 L 257.460938 89.148438 L 256.835938 75.164062 C 257.449219 74.605469 259.785156 73.863281 260.289062 73.238281 C 266.574219 77.425781 274.113281 79.871094 282.214844 79.871094 C 304.089844 79.871094 321.882812 62.078125 321.882812 40.207031 C 321.882812 18.335938 304.089844 0.539062 282.214844 0.539062 C 260.34375 0.539062 242.550781 18.335938 242.550781 40.207031 C 242.550781 45.84375 243.742188 51.210938 245.871094 56.070312 C 243.140625 55.40625 240.796875 56.015625 237.996094 55.539062 C 236.628906 55.308594 235.246094 55.171875 233.859375 55.183594 C 206.09375 55.324219 202.269531 86.871094 217.570312 98.390625 L 210.421875 110.097656 C 208.3125 109.894531 206.207031 110.964844 205.175781 112.949219 C 198.949219 125.003906 193.765625 136.789062 189.941406 148.226562 C 189.121094 150.667969 188.691406 153.214844 188.691406 155.789062 L 188.691406 157.574219 L 169.816406 158.882812 C 164 158.882812 159.273438 163.609375 159.273438 169.4375 L 158.867188 257.027344 L 158.867188 280.058594 L 167.84375 282.105469 L 167.664062 283.277344 C 168.113281 283.285156 168.566406 283.292969 169.015625 283.308594 L 169.199219 282.105469 L 183.78125 282.105469 L 183.4375 283.621094 C 183.894531 283.628906 184.351562 283.644531 184.804688 283.648438 L 185.15625 282.105469 L 235.738281 282.105469 L 236.207031 284.167969 C 236.664062 284.160156 237.121094 284.160156 237.582031 284.160156 L 237.113281 282.105469 L 251.695312 282.105469 L 252.148438 285.054688 C 252.605469 285.097656 253.066406 285.136719 253.523438 285.179688 L 253.050781 282.105469 L 268.035156 280.597656 L 270.160156 268.53125 L 277.800781 267.585938 C 278.703125 267.683594 279.355469 268.496094 279.242188 269.398438 L 268.777344 350.886719 C 268.722656 351.269531 269.027344 351.621094 269.421875 351.621094 L 271.941406 351.621094 C 269.679688 357.007812 269.128906 362.535156 271.746094 368.601562 C 272.085938 369.40625 272.863281 369.941406 273.738281 369.941406 L 285.082031 369.738281 C 285.539062 369.738281 285.976562 369.570312 286.308594 369.257812 L 289.140625 367.808594 C 290.097656 367.316406 291.214844 367.273438 292.203125 367.667969 L 296.609375 369.410156 C 296.90625 369.625 297.269531 369.738281 297.648438 369.738281 L 319.9375 370.234375 C 322.3125 370.234375 324.234375 368.3125 324.234375 365.933594 L 324.234375 364.140625 C 324.234375 362.941406 323.746094 361.832031 322.914062 361.039062 L 329.0625 360.757812 C 329.765625 360.757812 330.457031 360.542969 331.035156 360.152344 L 334.121094 358.078125 C 334.671875 357.703125 335.398438 357.683594 335.96875 358.023438 L 339.75 360.257812 C 340.292969 360.589844 340.917969 360.757812 341.554688 360.757812 L 364.097656 361.886719 C 365.113281 361.886719 365.9375 361.054688 365.9375 360.039062 L 366.035156 355.398438 C 366.035156 354.640625 365.589844 353.96875 364.890625 353.683594 Z M 243.890625 40.207031 C 243.890625 19.074219 261.082031 1.878906 282.214844 1.878906 C 303.347656 1.878906 320.542969 19.074219 320.542969 40.207031 C 320.542969 61.339844 303.347656 78.53125 282.214844 78.53125 C 274.414062 78.53125 267.15625 76.183594 261.09375 72.164062 C 261.710938 71.246094 262.226562 70.269531 262.636719 69.226562 C 264.121094 65.453125 262.0625 61.191406 258.25 59.808594 C 254.734375 58.53125 251.160156 57.429688 247.53125 56.488281 C 245.199219 51.542969 243.890625 46.027344 243.890625 40.207031 Z M 305.933594 355.039062 C 304.996094 354.652344 303.175781 353.15625 302.585938 352.34375 L 304.988281 351.835938 C 305.308594 351.835938 305.585938 351.59375 305.632812 351.261719 L 308.152344 333.421875 L 314.507812 347.132812 C 314.582031 347.292969 314.75 347.382812 314.921875 347.347656 L 316.089844 347.105469 C 315.332031 350.519531 315.957031 355.570312 317.214844 359.257812 Z M 258.488281 44.890625 C 259.902344 45.757812 261.492188 46.199219 263.105469 46.199219 C 263.804688 46.199219 264.507812 46.117188 265.203125 45.949219 C 267.507812 45.394531 269.460938 43.972656 270.699219 41.949219 C 271.9375 39.925781 272.3125 37.542969 271.757812 35.234375 C 271.203125 32.929688 269.78125 30.976562 267.757812 29.738281 C 265.734375 28.5 263.351562 28.125 261.042969 28.679688 C 258.738281 29.234375 256.785156 30.65625 255.546875 32.679688 C 254.308594 34.703125 253.933594 37.089844 254.488281 39.394531 C 255.042969 41.703125 256.464844 43.652344 258.488281 44.890625 Z M 256.691406 33.378906 C 257.742188 31.660156 259.398438 30.453125 261.359375 29.984375 C 261.949219 29.839844 262.546875 29.769531 263.136719 29.769531 C 264.507812 29.769531 265.859375 30.148438 267.058594 30.882812 C 268.777344 31.933594 269.984375 33.589844 270.457031 35.550781 C 270.925781 37.507812 270.609375 39.53125 269.558594 41.25 C 268.503906 42.96875 266.847656 44.175781 264.890625 44.648438 C 262.929688 45.121094 260.90625 44.800781 259.1875 43.75 C 257.46875 42.695312 256.261719 41.039062 255.792969 39.082031 C 255.320312 37.121094 255.640625 35.097656 256.691406 33.378906 Z M 260.613281 36.402344 C 260.878906 36.660156 261.433594 36.84375 262.273438 36.945312 C 262.320312 37.3125 262.394531 37.722656 262.496094 38.179688 C 262.601562 38.636719 262.675781 39.023438 262.726562 39.339844 C 262.535156 39.316406 262.238281 39.195312 261.839844 38.980469 C 261.710938 38.90625 261.644531 38.867188 261.636719 38.863281 C 261.464844 38.773438 261.339844 38.742188 261.257812 38.761719 C 261.175781 38.78125 261.117188 38.828125 261.074219 38.90625 C 261.03125 38.984375 261.019531 39.074219 261.042969 39.171875 C 261.101562 39.402344 261.3125 39.59375 261.679688 39.75 C 262.050781 39.902344 262.433594 39.988281 262.832031 40 L 262.898438 40.273438 C 262.988281 40.496094 263.125 40.585938 263.3125 40.542969 C 263.390625 40.523438 263.453125 40.46875 263.507812 40.382812 C 263.5625 40.292969 263.582031 40.191406 263.558594 40.082031 L 263.503906 39.847656 C 263.960938 39.738281 264.363281 39.535156 264.699219 39.234375 C 265.039062 38.933594 265.148438 38.539062 265.03125 38.054688 C 264.789062 37.054688 264.070312 36.484375 262.875 36.339844 L 262.449219 34.308594 L 262.382812 34.050781 C 262.945312 33.972656 263.3125 34.097656 263.476562 34.410156 C 263.578125 34.550781 263.699219 34.605469 263.832031 34.570312 C 263.898438 34.554688 263.949219 34.53125 263.988281 34.492188 C 264.082031 34.402344 264.117188 34.28125 264.09375 34.128906 C 263.921875 33.828125 263.652344 33.613281 263.292969 33.480469 C 262.933594 33.351562 262.542969 33.316406 262.121094 33.386719 L 262.054688 33.113281 C 261.953125 32.941406 261.820312 32.871094 261.660156 32.910156 C 261.582031 32.929688 261.515625 32.976562 261.464844 33.046875 C 261.414062 33.117188 261.394531 33.199219 261.40625 33.300781 L 261.46875 33.574219 C 261.167969 33.710938 260.925781 33.917969 260.742188 34.183594 C 260.554688 34.449219 260.433594 34.742188 260.371094 35.058594 C 260.3125 35.371094 260.308594 35.648438 260.363281 35.882812 C 260.421875 36.121094 260.503906 36.292969 260.613281 36.402344 Z M 263.910156 37.464844 C 264.121094 37.648438 264.273438 37.9375 264.371094 38.332031 C 264.464844 38.730469 264.140625 39.050781 263.398438 39.289062 C 263.300781 38.789062 263.207031 38.339844 263.125 37.953125 C 263.039062 37.5625 262.984375 37.269531 262.957031 37.066406 C 263.382812 37.152344 263.699219 37.285156 263.910156 37.464844 Z M 261.136719 34.910156 C 261.257812 34.601562 261.453125 34.378906 261.714844 34.242188 C 261.730469 34.292969 261.761719 34.402344 261.804688 34.578125 L 261.984375 35.457031 L 262.179688 36.261719 C 261.511719 36.210938 261.132812 36.046875 261.042969 35.765625 C 260.980469 35.5 261.011719 35.214844 261.136719 34.910156 Z M 288.453125 33.722656 C 294.507812 33.722656 299.429688 28.796875 299.429688 22.746094 C 299.429688 16.691406 294.507812 11.769531 288.453125 11.769531 C 282.402344 11.769531 277.476562 16.691406 277.476562 22.746094 C 277.476562 28.796875 282.402344 33.722656 288.453125 33.722656 Z M 288.453125 13.109375 C 293.769531 13.109375 298.089844 17.433594 298.089844 22.746094 C 298.089844 28.058594 293.769531 32.382812 288.453125 32.382812 C 283.140625 32.382812 278.816406 28.058594 278.816406 22.746094 C 278.816406 17.433594 283.140625 13.109375 288.453125 13.109375 Z M 288.453125 13.109375 " fill-opacity="1" fill-rule="nonzero"/></g><g clip-path="url(#5abe7a7486)"><path fill="#545454" d="M 400.375 199.4375 L 400.375 190.589844 C 400.375 190.21875 400.074219 189.921875 399.703125 189.921875 L 386.261719 189.921875 L 386.261719 183.941406 C 386.261719 183.570312 385.960938 183.273438 385.589844 183.273438 L 367.632812 183.273438 L 386.238281 116.503906 C 386.292969 116.300781 386.253906 116.082031 386.125 115.917969 C 386 115.75 385.800781 115.652344 385.589844 115.652344 L 378.832031 115.652344 L 384.324219 95.628906 C 384.378906 95.429688 384.335938 95.210938 384.210938 95.046875 C 384.082031 94.878906 383.886719 94.78125 383.675781 94.78125 L 375.824219 94.78125 C 375.523438 94.78125 375.261719 94.984375 375.179688 95.273438 L 353.871094 171.816406 C 353.816406 172.015625 353.859375 172.234375 353.984375 172.398438 C 354.113281 172.566406 354.308594 172.664062 354.519531 172.664062 L 361.808594 172.664062 L 358.917969 183.273438 L 342.742188 183.273438 C 342.371094 183.273438 342.070312 183.570312 342.070312 183.941406 L 342.070312 189.921875 L 337.402344 189.917969 L 337.402344 183.941406 C 337.402344 183.574219 337.105469 183.273438 336.738281 183.273438 L 307.757812 183.046875 C 307.59375 183.058594 307.40625 183.117188 307.277344 183.242188 C 307.152344 183.367188 307.082031 183.539062 307.082031 183.71875 L 307.082031 189.917969 L 299.039062 189.917969 C 298.671875 189.917969 298.371094 190.21875 298.371094 190.589844 L 298.371094 199.472656 C 298.371094 199.757812 298.550781 200 298.800781 200.09375 L 280.089844 373.691406 C 280.070312 373.878906 280.132812 374.070312 280.257812 374.210938 C 280.386719 374.351562 280.566406 374.433594 280.757812 374.433594 L 288.15625 374.433594 C 288.496094 374.433594 288.78125 374.179688 288.824219 373.839844 L 300.378906 276.769531 L 398.863281 276.773438 L 410.421875 373.84375 C 410.460938 374.179688 410.75 374.433594 411.089844 374.433594 L 418.488281 374.433594 C 418.679688 374.433594 418.859375 374.351562 418.984375 374.210938 C 419.113281 374.070312 419.175781 373.878906 419.15625 373.691406 Z M 355.402344 171.324219 L 376.335938 96.121094 L 382.796875 96.121094 L 377.386719 115.855469 C 377.304688 115.933594 377.238281 116.03125 377.207031 116.144531 L 362.171875 171.324219 Z M 363.332031 172.171875 L 378.464844 116.992188 L 384.710938 116.992188 L 366.242188 183.273438 L 360.308594 183.273438 Z M 343.410156 184.613281 L 384.921875 184.613281 L 384.921875 189.921875 L 343.410156 189.921875 Z M 308.421875 184.394531 L 336.0625 184.605469 L 336.0625 189.914062 L 308.421875 189.703125 Z M 299.710938 191.261719 L 336.726562 191.261719 C 336.726562 191.261719 336.730469 191.261719 336.730469 191.261719 L 399.035156 191.261719 L 399.035156 198.804688 L 299.710938 198.804688 Z M 306.027344 229.320312 L 306.742188 223.332031 L 306.964844 221.476562 L 392.273438 221.476562 L 392.785156 225.765625 L 393.210938 229.320312 Z M 393.371094 230.664062 L 397.609375 266.246094 L 301.632812 266.246094 L 305.867188 230.664062 Z M 307.121094 220.136719 L 309.503906 200.144531 L 325.210938 200.144531 L 325.210938 220.136719 Z M 326.550781 220.136719 L 326.550781 200.144531 L 350.203125 200.144531 L 350.203125 220.136719 Z M 351.546875 220.136719 L 351.546875 200.144531 L 375.199219 200.144531 L 375.199219 220.136719 Z M 376.542969 220.136719 L 376.542969 200.144531 L 389.734375 200.144531 L 392.117188 220.136719 Z M 299.433594 273.382812 L 299.117188 276.023438 C 299.117188 276.023438 299.117188 276.027344 299.117188 276.027344 L 287.5625 373.09375 L 281.503906 373.09375 L 300.144531 200.144531 L 308.152344 200.144531 L 305.429688 223.015625 L 304.601562 229.914062 C 304.601562 229.917969 304.605469 229.925781 304.605469 229.933594 Z M 300.539062 275.429688 L 300.804688 273.203125 L 301.476562 267.585938 L 397.769531 267.585938 L 398.015625 269.683594 L 398.699219 275.429688 Z M 411.683594 373.09375 L 399.316406 269.238281 L 399.03125 266.835938 C 399.027344 266.835938 399.027344 266.832031 399.027344 266.832031 L 394.632812 229.921875 C 394.632812 229.917969 394.632812 229.914062 394.632812 229.914062 L 394.140625 225.777344 L 391.085938 200.144531 L 399.101562 200.144531 L 417.742188 373.09375 Z M 270.160156 268.53125 L 191.085938 260.542969 C 190.683594 260.507812 190.300781 260.402344 189.933594 260.238281 C 188.957031 259.820312 188.171875 259 187.804688 257.96875 C 183.507812 245.78125 184.054688 232.894531 188.691406 219.421875 L 188.691406 157.574219 L 167.726562 157.574219 C 161.910156 157.574219 157.183594 162.300781 157.183594 168.128906 L 157.183594 260.238281 L 157.484375 282.105469 L 167.84375 282.105469 L 153.808594 373.664062 C 153.78125 373.855469 153.835938 374.054688 153.964844 374.199219 C 154.089844 374.347656 154.277344 374.433594 154.472656 374.433594 L 163.625 374.433594 C 163.9375 374.433594 164.207031 374.21875 164.277344 373.914062 L 185.15625 282.105469 L 235.738281 282.105469 L 256.617188 373.914062 C 256.6875 374.21875 256.960938 374.433594 257.273438 374.433594 L 266.425781 374.433594 C 266.621094 374.433594 266.804688 374.347656 266.933594 374.203125 C 267.058594 374.054688 267.117188 373.855469 267.085938 373.664062 L 253.050781 282.105469 L 270.355469 282.105469 Z M 163.089844 373.09375 L 155.253906 373.09375 L 169.199219 282.105469 L 183.78125 282.105469 Z M 265.644531 373.09375 L 257.808594 373.09375 L 237.113281 282.105469 L 251.695312 282.105469 Z M 265.644531 373.09375 " fill-opacity="1" fill-rule="nonzero"/></g><path fill="#ff967a" d="M 252.691406 102.601562 L 234.238281 95.835938 L 236.6875 70.824219 L 258.632812 75.023438 L 257.847656 89.824219 C 261.285156 96.648438 260.042969 102.617188 253.101562 101.296875 C 252.96875 101.742188 252.832031 102.179688 252.691406 102.601562 Z M 248.1875 103.921875 C 247.808594 103.734375 247.414062 103.539062 246.917969 103.375 C 246.988281 103.894531 247.214844 104.339844 247.519531 104.722656 C 247.820312 105.109375 248.21875 105.421875 248.660156 105.648438 C 249.550781 106.085938 250.632812 106.175781 251.527344 105.65625 C 251.089844 105.367188 250.699219 105.175781 250.328125 104.988281 L 249.261719 104.449219 Z M 329.40625 178.933594 L 326.652344 174.632812 C 326.132812 173.820312 325.339844 173.222656 324.417969 172.9375 L 318.621094 171.183594 C 317.914062 170.96875 317.164062 170.980469 316.464844 171.21875 L 304.082031 175.464844 L 304.070312 175.464844 L 268.371094 175.714844 C 267.808594 175.722656 267.253906 175.5 266.855469 175.109375 L 254.566406 163.230469 L 252.144531 165.464844 L 251.222656 164.292969 L 251.222656 166.304688 L 246.480469 170.675781 L 234.378906 181.828125 L 251.222656 198.171875 L 253.816406 200.683594 C 254.976562 201.808594 256.371094 202.703125 257.910156 203.210938 C 259.605469 203.773438 261.367188 204.078125 263.207031 204.058594 C 264.546875 204.042969 265.878906 203.765625 267.121094 203.265625 L 300.773438 189.90625 C 301.023438 189.796875 301.3125 189.769531 301.578125 189.796875 C 307.566406 190.496094 312.847656 189.644531 316.679688 185.535156 C 317.082031 185.105469 317.699219 184.9375 318.28125 185.0625 L 325.480469 186.644531 C 326.277344 186.824219 327.082031 186.402344 327.394531 185.652344 L 329.539062 180.488281 C 329.753906 179.976562 329.699219 179.398438 329.40625 178.933594 Z M 222.433594 93.898438 C 222.90625 94.273438 223.441406 94.601562 224.050781 94.898438 C 225.070312 95.371094 226.285156 95.703125 227.707031 95.835938 L 228.347656 86.703125 L 228.597656 83.226562 C 227.007812 82.546875 225.597656 82.359375 224.398438 82.546875 C 219.414062 83.308594 218.007812 90.359375 222.433594 93.898438 Z M 242.558594 124.539062 L 241.726562 113.179688 L 224.433594 107.660156 L 221.378906 99.992188 C 220.019531 99.589844 218.761719 99.054688 217.609375 98.402344 C 217.589844 98.402344 217.582031 98.390625 217.570312 98.390625 L 210.421875 110.097656 C 210.984375 110.152344 211.558594 110.304688 212.101562 110.554688 L 242.136719 124.316406 C 242.28125 124.378906 242.421875 124.449219 242.558594 124.539062 Z M 242.558594 124.539062 " fill-opacity="1" fill-rule="nonzero"/><path fill="#321a2a" d="M 302.8125 189.460938 C 304.828125 189.589844 306.847656 189.601562 308.910156 189.691406 C 306.914062 190.226562 304.839844 190.40625 302.773438 190.351562 C 300.710938 190.277344 298.636719 189.964844 296.695312 189.242188 C 296.605469 189.210938 296.5625 189.113281 296.59375 189.023438 C 296.621094 188.949219 296.699219 188.90625 296.773438 188.914062 C 298.804688 189.128906 300.796875 189.351562 302.8125 189.460938 Z M 301.632812 266.246094 L 321.078125 266.246094 L 317.976562 257.640625 L 315.070312 250.222656 C 314.195312 248 312.472656 246.210938 310.28125 245.253906 L 304.4375 242.699219 Z M 322.34375 175.78125 C 323.429688 176.679688 324.566406 177.664062 325.710938 178.554688 C 326.855469 179.46875 328.039062 180.335938 329.257812 181.164062 C 328.265625 180.074219 327.238281 179.027344 326.167969 178.027344 C 325.097656 177.011719 324.046875 176.050781 322.886719 175.074219 C 321.644531 174.117188 320.007812 173.667969 318.507812 173.8125 C 317.042969 173.871094 315.582031 173.984375 314.117188 174.160156 C 315.582031 174.332031 317.042969 174.445312 318.507812 174.503906 C 319.925781 174.515625 321.261719 174.945312 322.34375 175.78125 Z M 317.617188 178.167969 C 318.910156 178.132812 320.195312 178.484375 321.25 179.199219 C 323.53125 180.710938 325.855469 182.175781 328.328125 183.40625 C 326.246094 181.585938 324.019531 179.992188 321.742188 178.453125 C 320.515625 177.644531 319 177.28125 317.5625 177.476562 C 316.191406 177.664062 314.847656 177.914062 313.496094 178.21875 C 314.875 178.257812 316.257812 178.238281 317.617188 178.167969 Z M 301.480469 267.585938 L 301.183594 270.050781 L 300.542969 275.429688 L 324.390625 275.429688 L 321.558594 267.585938 Z M 250.113281 85.277344 C 250.519531 85.359375 250.910156 85.457031 251.324219 85.574219 C 251.738281 85.695312 252.164062 85.851562 252.691406 86.027344 C 252.46875 84.9375 251.4375 84.171875 250.378906 83.964844 C 249.84375 83.859375 249.300781 83.871094 248.792969 84 C 248.285156 84.121094 247.804688 84.339844 247.394531 84.710938 C 247.921875 84.882812 248.390625 84.964844 248.839844 85.042969 Z M 320.601562 182.527344 C 321.683594 183.085938 322.804688 183.671875 323.933594 184.191406 C 325.0625 184.730469 326.214844 185.214844 327.394531 185.648438 C 326.378906 184.90625 325.335938 184.214844 324.261719 183.578125 C 323.191406 182.925781 322.121094 182.324219 320.996094 181.726562 C 319.796875 181.136719 318.40625 180.941406 317.109375 181.210938 C 315.859375 181.503906 314.691406 181.878906 313.496094 182.296875 C 314.746094 182.222656 316.015625 182.0625 317.210938 181.898438 C 318.382812 181.792969 319.566406 182.003906 320.601562 182.527344 Z M 251.800781 100.101562 C 251.5 100.035156 251.183594 99.996094 250.765625 99.992188 C 250.816406 100.410156 251.023438 100.738281 251.265625 100.996094 C 251.503906 101.265625 251.800781 101.457031 252.117188 101.597656 C 252.4375 101.730469 252.785156 101.808594 253.144531 101.792969 C 253.5 101.78125 253.871094 101.699219 254.210938 101.449219 C 253.921875 101.144531 253.667969 100.945312 253.410156 100.777344 C 253.15625 100.601562 252.90625 100.472656 252.640625 100.363281 C 252.375 100.253906 252.105469 100.160156 251.800781 100.101562 Z M 320.210938 359.542969 C 319.570312 359.257812 318.914062 359.003906 318.226562 358.8125 C 317.546875 358.613281 316.84375 358.457031 316.089844 358.417969 C 316.617188 358.960938 317.199219 359.382812 317.800781 359.761719 C 318.398438 360.148438 319.023438 360.472656 319.664062 360.765625 C 320.304688 361.050781 320.960938 361.304688 321.644531 361.496094 C 322.328125 361.695312 323.027344 361.851562 323.785156 361.886719 C 323.257812 361.34375 322.675781 360.921875 322.074219 360.542969 C 321.476562 360.15625 320.855469 359.832031 320.210938 359.542969 Z M 347.867188 340.53125 L 324.875 276.773438 L 300.382812 276.773438 L 291.363281 352.539062 L 305.527344 352.539062 C 305.851562 352.539062 306.128906 352.296875 306.171875 351.96875 L 308.289062 335.015625 L 313.695312 347.777344 C 313.765625 347.9375 313.9375 348.027344 314.105469 347.992188 L 315.277344 347.75 L 345.300781 341.484375 L 347.597656 341.011719 C 347.8125 340.96875 347.9375 340.734375 347.867188 340.53125 Z M 295.957031 238.992188 L 283.722656 352.539062 L 290.007812 352.539062 L 303.152344 242.136719 Z M 226.710938 82.003906 C 226.800781 81.644531 227.167969 81.429688 227.523438 81.515625 L 258.007812 89.171875 C 258.101562 89.195312 258.1875 89.238281 258.257812 89.296875 C 258.273438 89.308594 258.285156 89.328125 258.300781 89.34375 C 258.351562 89.394531 258.398438 89.449219 258.433594 89.511719 C 258.4375 89.523438 258.449219 89.527344 258.453125 89.539062 C 258.464844 89.558594 258.460938 89.582031 258.46875 89.605469 C 258.488281 89.664062 258.503906 89.722656 258.503906 89.785156 C 258.507812 89.824219 258.503906 89.859375 258.5 89.898438 C 258.496094 89.925781 258.503906 89.957031 258.496094 89.984375 C 258.488281 90.019531 258.46875 90.046875 258.457031 90.078125 C 258.449219 90.09375 258.453125 90.109375 258.445312 90.125 C 256.363281 94.226562 252.925781 96.621094 249.332031 96.621094 C 248.699219 96.621094 248.058594 96.546875 247.425781 96.394531 C 243.15625 95.371094 240.390625 91.34375 240.355469 86.121094 L 227.195312 82.816406 C 226.835938 82.726562 226.621094 82.363281 226.710938 82.003906 Z M 241.71875 86.871094 C 241.992188 91.085938 244.292969 94.265625 247.734375 95.089844 C 250.46875 95.746094 254.222656 94.785156 256.835938 90.28125 Z M 248.234375 92.730469 C 248.933594 92.976562 249.777344 92.386719 250.121094 91.414062 C 250.464844 90.441406 250.175781 89.453125 249.476562 89.207031 C 248.78125 88.960938 247.9375 89.546875 247.59375 90.523438 C 247.25 91.496094 247.535156 92.484375 248.234375 92.730469 Z M 205.230469 145.707031 C 204.71875 140.171875 206.519531 135.308594 210.171875 132.371094 C 213.660156 129.5625 218.316406 128.886719 223.28125 130.464844 C 226.09375 131.359375 228.804688 133.039062 231.128906 135.320312 L 255.761719 162.128906 C 256.011719 162.402344 255.996094 162.824219 255.722656 163.074219 L 252.726562 165.835938 L 262.367188 177.589844 L 264.875 180.65625 C 265.171875 181.023438 265.652344 181.21875 266.113281 181.175781 L 268.027344 180.878906 C 270.636719 180.457031 273.253906 180.09375 275.875 179.75 L 291.609375 177.808594 L 295.542969 177.339844 L 297.511719 177.109375 L 298.496094 176.992188 C 298.8125 176.9375 299.117188 176.859375 299.429688 176.796875 C 301.949219 176.050781 304.476562 175.238281 307 174.464844 C 304.519531 175.382812 302.0625 176.332031 299.5625 177.230469 C 299.234375 177.316406 298.898438 177.414062 298.566406 177.484375 L 297.589844 177.644531 L 291.71875 178.605469 L 276.0625 181.078125 C 273.449219 181.472656 270.832031 181.84375 268.210938 182.160156 L 266.199219 182.40625 C 265.335938 182.460938 264.472656 182.0625 263.953125 181.382812 L 261.550781 178.230469 L 252.382812 166.152344 L 231.554688 185.339844 C 231.429688 185.453125 231.269531 185.515625 231.101562 185.515625 C 231.078125 185.515625 231.054688 185.515625 231.035156 185.515625 C 230.84375 185.496094 230.671875 185.394531 230.558594 185.238281 L 209.066406 155.570312 C 206.875 152.542969 205.546875 149.128906 205.230469 145.707031 Z M 206.5625 145.582031 C 206.859375 148.769531 208.101562 151.949219 210.152344 154.785156 L 231.203125 183.84375 L 254.324219 162.542969 L 230.167969 136.25 C 228.015625 134.140625 225.488281 132.574219 222.878906 131.742188 C 221.261719 131.230469 219.683594 130.972656 218.179688 130.972656 C 215.480469 130.972656 213.019531 131.796875 211.011719 133.414062 C 207.714844 136.066406 206.09375 140.503906 206.5625 145.582031 Z M 251.222656 219.421875 L 188.691406 219.421875 C 184.054688 232.894531 183.507812 245.78125 187.804688 257.96875 C 188.171875 259 188.957031 259.820312 189.933594 260.238281 C 190.300781 260.402344 190.683594 260.507812 191.085938 260.542969 L 270.160156 268.53125 L 276.40625 269.167969 C 277.308594 269.265625 277.960938 270.078125 277.84375 270.980469 L 267.335938 351.808594 C 267.28125 352.191406 267.585938 352.539062 267.980469 352.539062 L 282.367188 352.539062 L 294.664062 238.425781 Z M 251.222656 219.421875 " fill-opacity="1" fill-rule="nonzero"/><path fill="#5b1614" d="M 258.25 59.808594 C 251.5625 57.386719 244.683594 55.5625 237.578125 54.355469 C 236.210938 54.125 234.828125 53.988281 233.441406 54 C 205.679688 54.140625 200.234375 88.679688 217.570312 98.390625 C 217.582031 98.390625 217.589844 98.402344 217.609375 98.402344 C 218.761719 99.054688 220.019531 99.589844 221.378906 99.992188 L 224.433594 107.660156 L 241.726562 113.179688 L 245.179688 114.285156 C 245.664062 114.4375 246.1875 114.289062 246.519531 113.902344 C 247.527344 112.730469 249.6875 109.933594 251.527344 105.65625 C 250.636719 106.175781 249.554688 106.085938 248.660156 105.648438 C 248.214844 105.425781 247.820312 105.113281 247.515625 104.71875 C 247.210938 104.335938 246.988281 103.898438 246.917969 103.378906 C 247.417969 103.539062 247.8125 103.734375 248.1875 103.921875 L 249.257812 104.449219 L 250.332031 104.988281 C 250.699219 105.175781 251.089844 105.371094 251.527344 105.65625 C 251.941406 104.710938 252.332031 103.699219 252.691406 102.609375 L 252.691406 102.601562 L 234.238281 95.835938 L 236.6875 70.824219 L 258.632812 75.023438 C 260.445312 73.378906 261.769531 71.441406 262.636719 69.226562 C 264.121094 65.453125 262.0625 61.191406 258.25 59.808594 Z M 228.347656 86.703125 L 227.707031 95.835938 C 226.285156 95.703125 225.070312 95.371094 224.050781 94.898438 C 223.441406 94.601562 222.90625 94.273438 222.433594 93.898438 C 218.007812 90.359375 219.414062 83.308594 224.398438 82.546875 C 225.597656 82.359375 227.007812 82.546875 228.597656 83.226562 Z M 366.773438 354.808594 L 366.773438 360.039062 C 366.773438 361.054688 365.953125 361.886719 364.933594 361.886719 L 341.800781 361.886719 C 341.164062 361.886719 340.539062 361.71875 339.996094 361.386719 L 336.214844 359.152344 C 335.640625 358.8125 334.917969 358.832031 334.363281 359.207031 L 331.28125 361.277344 C 330.699219 361.671875 330.011719 361.886719 329.308594 361.886719 L 323.785156 361.886719 C 324.617188 362.683594 325.105469 363.789062 325.105469 364.988281 L 325.105469 366.785156 C 325.105469 369.160156 323.1875 371.082031 320.808594 371.082031 L 297.648438 371.082031 C 297.269531 371.082031 296.90625 370.964844 296.609375 370.75 L 292.203125 369.007812 C 291.300781 368.652344 290.292969 368.652344 289.398438 369.035156 L 291.363281 352.539062 L 303.804688 352.539062 C 304.394531 353.351562 305.207031 353.988281 306.144531 354.371094 L 316.089844 358.417969 C 314.832031 354.730469 314.519531 351.164062 315.277344 347.75 L 345.300781 341.484375 L 346.265625 343.34375 C 347.0625 344.863281 348.367188 346.0625 349.957031 346.714844 L 365.632812 353.09375 C 366.328125 353.378906 366.773438 354.050781 366.773438 354.808594 Z M 290.007812 352.539062 L 287.953125 369.757812 L 286.308594 370.597656 C 285.976562 370.914062 285.539062 371.082031 285.082031 371.082031 L 281.722656 371.082031 L 283.722656 352.539062 Z M 282.367188 352.539062 L 280.363281 371.082031 L 273.25 371.082031 C 272.375 371.082031 271.597656 370.546875 271.257812 369.742188 C 268.640625 363.675781 268.238281 357.929688 270.5 352.539062 Z M 282.367188 352.539062 " fill-opacity="1" fill-rule="nonzero"/></svg>