<svg xmlns="http://www.w3.org/2000/svg" xmlns:xlink="http://www.w3.org/1999/xlink" width="1000" zoomAndPan="magnify" viewBox="0 0 750 749.999995" height="1000" preserveAspectRatio="xMidYMid meet" version="1.0"><rect x="-75" width="900" fill="#7ae582" y="-74.999999" height="899.999994" fill-opacity="1"/><path fill="#121212" d="M 165.820312 377.460938 L 165.585938 408.195312 L 263.203125 408.195312 L 263.203125 685.574219 L 332.253906 685.574219 L 332.253906 408.195312 L 429.871094 408.195312 L 429.871094 378.078125 C 429.871094 361.40625 429.515625 347.460938 429.039062 347.109375 C 428.683594 346.640625 369.277344 346.40625 297.246094 346.523438 L 166.171875 346.875 Z M 165.820312 377.460938 " fill-opacity="1" fill-rule="nonzero"/><path fill="#121212" d="M 605.1875 346.027344 C 624.230469 350.769531 638.761719 359.238281 652.089844 373.039062 C 658.976562 380.421875 669.230469 393.867188 670.050781 397.089844 C 670.285156 398.058594 637.675781 419.941406 617.898438 432.21875 C 617.195312 432.6875 614.355469 429.582031 611.132812 424.835938 C 601.496094 410.773438 591.359375 404.707031 575.890625 403.652344 C 553.15625 402.101562 538.507812 413.996094 538.625 433.886719 C 538.625 439.71875 539.472656 443.175781 541.847656 447.917969 C 546.855469 458.289062 556.144531 464.472656 585.292969 477.101562 C 638.996094 500.1875 661.964844 515.417969 676.261719 537.097656 C 692.199219 561.269531 695.773438 599.824219 684.933594 628.503906 C 673.039062 659.707031 643.507812 680.886719 601.964844 687.917969 C 589.101562 690.175781 558.632812 689.824219 544.804688 687.332031 C 514.6875 681.972656 486.125 667.089844 468.515625 647.578125 C 461.601562 639.960938 448.15625 620.070312 448.976562 618.632812 C 449.355469 618.164062 452.433594 616.257812 455.890625 614.238281 C 459.230469 612.335938 471.855469 605.066406 483.75 598.152344 L 505.285156 585.671875 L 509.824219 592.324219 C 516.125 601.960938 529.953125 615.175781 538.273438 619.597656 C 562.207031 632.199219 595.050781 630.410156 611.25 615.910156 C 618.164062 609.582031 621.007812 603.046875 621.007812 593.410156 C 621.007812 584.707031 619.953125 580.898438 615.410156 574.367188 C 609.582031 566.015625 597.6875 558.984375 563.878906 544.367188 C 525.175781 527.695312 508.507812 517.324219 493.273438 500.890625 C 484.453125 491.367188 476.132812 476.132812 472.675781 463.390625 C 469.804688 452.8125 469.101562 426.269531 471.359375 415.546875 C 479.355469 378.164062 507.570312 352.089844 548.261719 344.355469 C 561.476562 341.867188 592.207031 342.804688 605.1875 346.027344 Z M 605.1875 346.027344 " fill-opacity="1" fill-rule="nonzero"/></svg>