<svg xmlns="http://www.w3.org/2000/svg" xmlns:xlink="http://www.w3.org/1999/xlink" width="1000" zoomAndPan="magnify" viewBox="0 0 750 749.999995" height="1000" preserveAspectRatio="xMidYMid meet" version="1.0"><path fill="#7ae582" d="M 107.082031 672.199219 L 47.464844 3.539062 L 702.535156 3.539062 L 642.855469 672.078125 L 374.597656 746.460938 Z M 107.082031 672.199219 " fill-opacity="1" fill-rule="nonzero"/><path fill="#7ae582" d="M 375 689.628906 L 591.777344 629.542969 L 642.761719 58.203125 L 375 58.203125 Z M 375 689.628906 " fill-opacity="1" fill-rule="nonzero"/><path fill="#121212" d="M 375 306.21875 L 266.472656 306.21875 L 258.980469 222.234375 L 375 222.234375 L 375 140.234375 L 169.363281 140.234375 L 171.316406 162.214844 L 191.464844 388.21875 L 375 388.21875 Z M 375 519.1875 L 374.628906 519.28125 L 283.3125 494.609375 L 277.460938 429.203125 L 195.148438 429.203125 L 206.632812 557.976562 L 374.628906 604.59375 L 375 604.5 Z M 375 519.1875 " fill-opacity="1" fill-rule="nonzero"/><path fill="#121212" d="M 374.722656 306.21875 L 374.722656 388.21875 L 475.695312 388.21875 L 466.164062 494.578125 L 374.691406 519.25 L 374.691406 604.5625 L 542.808594 557.976562 L 544.046875 544.109375 L 563.332031 328.195312 L 565.34375 306.1875 L 543.242188 306.1875 Z M 374.722656 140.234375 L 374.722656 222.234375 L 572.804688 222.234375 L 574.445312 203.785156 L 578.191406 162.214844 L 580.140625 140.203125 Z M 374.722656 140.234375 " fill-opacity="1" fill-rule="nonzero"/></svg>