<svg xmlns="http://www.w3.org/2000/svg" xmlns:xlink="http://www.w3.org/1999/xlink" width="1000" zoomAndPan="magnify" viewBox="0 0 750 749.999995" height="1000" preserveAspectRatio="xMidYMid meet" version="1.0"><defs><clipPath id="67b51ad86b"><path d="M 39.375 0 L 710.625 0 L 710.625 750 L 39.375 750 Z M 39.375 0 " clip-rule="nonzero"/></clipPath></defs><g clip-path="url(#67b51ad86b)"><path fill="#7ae582" d="M 651.316406 671.050781 L 375 750 L 98.683594 671.050781 L 39.472656 0 L 710.527344 0 C 690.789062 223.660156 671.050781 447.394531 651.316406 671.050781 Z M 667.429688 39.472656 L 82.570312 39.472656 L 135.613281 640.523438 L 375 708.984375 L 614.386719 640.523438 Z M 213.171875 434.210938 L 292.121094 434.210938 L 294.046875 483.550781 L 375 511.152344 L 455.953125 483.550781 L 461.8125 394.738281 L 288.1875 394.738281 L 284.179688 315.789062 L 465.820312 315.789062 L 471.679688 236.84375 L 199.371094 236.84375 L 193.4375 157.894531 L 554.636719 157.894531 L 544.769531 315.789062 L 530.890625 542.761719 L 375 594.109375 L 219.109375 542.761719 Z M 213.171875 434.210938 " fill-opacity="1" fill-rule="evenodd"/></g></svg>