<svg xmlns="http://www.w3.org/2000/svg" xmlns:xlink="http://www.w3.org/1999/xlink" width="1000" zoomAndPan="magnify" viewBox="0 0 750 749.999995" height="1000" preserveAspectRatio="xMidYMid meet" version="1.0"><defs><clipPath id="3b8e35b5c5"><path d="M 0 50.46875 L 750 50.46875 L 750 699 L 0 699 Z M 0 50.46875 " clip-rule="nonzero"/></clipPath></defs><g clip-path="url(#3b8e35b5c5)"><path fill="#7ae582" d="M 632.207031 493.328125 C 635.378906 491.507812 638.011719 488.886719 639.847656 485.730469 C 641.683594 482.570312 642.65625 478.984375 642.667969 475.332031 L 643.042969 354.8125 C 643.054688 351.15625 644.027344 347.570312 645.863281 344.414062 C 647.699219 341.253906 650.332031 338.632812 653.503906 336.816406 L 718.867188 299.289062 C 722.03125 297.46875 725.625 296.515625 729.28125 296.519531 C 732.933594 296.527344 736.519531 297.492188 739.683594 299.320312 C 742.839844 301.148438 745.46875 303.777344 747.289062 306.941406 C 749.113281 310.105469 750.078125 313.691406 750.078125 317.34375 L 750.078125 536.457031 C 750.078125 540.121094 749.113281 543.71875 747.277344 546.890625 C 745.4375 550.058594 742.796875 552.691406 739.617188 554.511719 L 492.941406 696.132812 C 489.792969 697.941406 486.222656 698.894531 482.585938 698.898438 C 478.953125 698.902344 475.382812 697.957031 472.226562 696.152344 L 278.644531 585.480469 C 275.453125 583.660156 272.800781 581.03125 270.957031 577.855469 C 269.113281 574.679688 268.140625 571.078125 268.136719 567.40625 L 268.136719 456.921875 C 268.136719 456.796875 268.285156 456.714844 268.410156 456.773438 C 268.511719 456.839844 268.660156 456.773438 268.660156 456.628906 L 268.660156 456.503906 C 268.660156 456.421875 268.699219 456.335938 268.785156 456.296875 L 428.226562 364.746094 C 428.371094 364.660156 428.308594 364.429688 428.140625 364.429688 C 428.097656 364.429688 428.054688 364.414062 428.023438 364.382812 C 427.992188 364.351562 427.972656 364.308594 427.972656 364.265625 L 428.285156 255.945312 C 428.300781 252.285156 427.347656 248.683594 425.527344 245.503906 C 423.703125 242.324219 421.074219 239.683594 417.90625 237.847656 C 414.734375 236.011719 411.136719 235.039062 407.472656 235.035156 C 403.804688 235.035156 400.207031 235.996094 397.03125 237.828125 L 278.539062 306.078125 C 275.375 307.898438 271.789062 308.859375 268.140625 308.859375 C 264.492188 308.859375 260.90625 307.898438 257.742188 306.078125 L 138.875 237.667969 C 135.707031 235.84375 132.117188 234.886719 128.460938 234.886719 C 124.804688 234.890625 121.21875 235.851562 118.050781 237.679688 C 114.886719 239.507812 112.261719 242.132812 110.433594 245.296875 C 108.605469 248.460938 107.640625 252.046875 107.640625 255.699219 L 107.640625 451.46875 C 107.640625 455.117188 106.6875 458.703125 104.867188 461.863281 C 103.046875 465.027344 100.425781 467.65625 97.269531 469.488281 C 94.113281 471.324219 90.53125 472.296875 86.878906 472.308594 C 83.230469 472.320312 79.640625 471.375 76.46875 469.566406 L 10.5 431.863281 C 7.308594 430.039062 4.652344 427.402344 2.808594 424.222656 C 0.964844 421.039062 -0.00390625 417.425781 0 413.75 L 0.585938 71.570312 C 0.59375 67.921875 1.5625 64.34375 3.390625 61.1875 C 5.21875 58.03125 7.84375 55.410156 11.003906 53.585938 C 14.164062 51.765625 17.746094 50.800781 21.394531 50.796875 C 25.042969 50.792969 28.628906 51.746094 31.792969 53.5625 L 257.761719 183.28125 C 260.921875 185.09375 264.5 186.046875 268.140625 186.046875 C 271.78125 186.046875 275.359375 185.09375 278.515625 183.28125 L 504.417969 53.554688 C 507.589844 51.734375 511.179688 50.78125 514.835938 50.789062 C 518.492188 50.796875 522.078125 51.761719 525.242188 53.59375 C 528.40625 55.425781 531.03125 58.054688 532.855469 61.222656 C 534.675781 64.386719 535.636719 67.976562 535.632812 71.632812 L 535.632812 413.890625 C 535.632812 417.550781 534.671875 421.148438 532.839844 424.320312 C 531.007812 427.488281 528.371094 430.121094 525.195312 431.949219 L 406.886719 500.050781 C 403.710938 501.882812 401.074219 504.519531 399.242188 507.695312 C 397.410156 510.871094 396.449219 514.472656 396.457031 518.140625 C 396.464844 521.808594 397.441406 525.40625 399.289062 528.574219 C 401.132812 531.742188 403.785156 534.367188 406.96875 536.183594 L 472.230469 573.316406 C 475.382812 575.113281 478.953125 576.050781 482.582031 576.042969 C 486.210938 576.035156 489.773438 575.082031 492.917969 573.273438 L 632.210938 493.324219 Z M 645.898438 186.304688 C 645.898438 189.988281 646.878906 193.605469 648.738281 196.785156 C 650.59375 199.96875 653.261719 202.597656 656.46875 204.414062 C 659.675781 206.226562 663.308594 207.160156 666.992188 207.113281 C 670.675781 207.066406 674.285156 206.042969 677.445312 204.152344 L 739.949219 166.664062 C 743.039062 164.816406 745.589844 162.203125 747.371094 159.074219 C 749.144531 155.945312 750.078125 152.414062 750.078125 148.816406 L 750.078125 72.425781 C 750.070312 68.742188 749.09375 65.128906 747.234375 61.949219 C 745.375 58.773438 742.703125 56.144531 739.496094 54.332031 C 736.289062 52.519531 732.660156 51.589844 728.976562 51.636719 C 725.296875 51.683594 721.691406 52.707031 718.53125 54.597656 L 656.027344 92.085938 C 652.9375 93.933594 650.382812 96.546875 648.609375 99.675781 C 646.835938 102.804688 645.898438 106.339844 645.898438 109.933594 L 645.898438 186.324219 Z M 645.898438 186.304688 " fill-opacity="1" fill-rule="nonzero"/></g></svg>