<svg xmlns="http://www.w3.org/2000/svg" xmlns:xlink="http://www.w3.org/1999/xlink" width="1000" zoomAndPan="magnify" viewBox="0 0 750 749.999995" height="1000" preserveAspectRatio="xMidYMid meet" version="1.0"><path fill="#7ae582" d="M 616.382812 257.730469 C 608.402344 254.992188 600.359375 252.457031 592.25 250.121094 C 593.613281 244.558594 594.867188 239.058594 595.980469 233.660156 C 614.246094 144.96875 602.304688 73.515625 561.515625 49.992188 C 522.40625 27.4375 458.445312 50.953125 393.851562 107.179688 C 387.484375 112.734375 381.261719 118.445312 375.183594 124.308594 C 371.113281 120.410156 366.972656 116.585938 362.761719 112.835938 C 295.0625 52.71875 227.207031 27.378906 186.460938 50.972656 C 147.386719 73.59375 135.816406 140.765625 152.261719 224.820312 C 153.898438 233.144531 155.746094 241.425781 157.804688 249.65625 C 148.199219 252.386719 138.929688 255.292969 130.058594 258.386719 C 50.6875 286.0625 0 329.441406 0 374.429688 C 0 420.898438 54.414062 467.507812 137.085938 495.769531 C 143.789062 498.050781 150.546875 500.164062 157.351562 502.109375 C 155.140625 510.976562 153.179688 519.898438 151.464844 528.875 C 135.789062 611.472656 148.03125 677.054688 187 699.535156 C 227.246094 722.75 294.800781 698.890625 360.574219 641.378906 C 365.910156 636.703125 371.125 631.894531 376.21875 626.960938 C 382.800781 633.3125 389.558594 639.476562 396.484375 645.453125 C 460.199219 700.289062 523.125 722.433594 562.058594 699.890625 C 602.265625 676.609375 615.335938 606.15625 598.367188 520.441406 C 597.03125 513.722656 595.535156 507.042969 593.875 500.398438 C 598.617188 498.992188 603.273438 497.546875 607.8125 496.042969 C 693.757812 467.5625 749.675781 421.519531 749.675781 374.429688 C 749.675781 329.273438 697.347656 285.609375 616.382812 257.730469 Z M 597.742188 465.636719 C 593.644531 466.996094 589.4375 468.304688 585.152344 469.578125 C 575.660156 439.535156 562.859375 407.59375 547.1875 374.585938 C 562.140625 342.367188 574.453125 310.832031 583.675781 280.984375 C 591.34375 283.207031 598.785156 285.546875 605.960938 288.015625 C 675.332031 311.902344 717.648438 347.21875 717.648438 374.429688 C 717.648438 403.414062 671.949219 441.042969 597.742188 465.636719 Z M 566.953125 526.660156 C 574.457031 564.5625 575.523438 598.828125 570.554688 625.621094 C 566.09375 649.695312 557.113281 665.742188 546.007812 672.171875 C 522.386719 685.847656 471.859375 668.070312 417.371094 621.171875 C 410.929688 615.617188 404.644531 609.882812 398.523438 603.980469 C 419.648438 580.871094 440.757812 554.011719 461.363281 524.175781 C 497.605469 520.960938 531.84375 515.699219 562.894531 508.523438 C 564.390625 514.535156 565.742188 520.582031 566.953125 526.660156 Z M 255.582031 669.808594 C 232.5 677.957031 214.113281 678.191406 203 671.785156 C 179.355469 658.144531 169.523438 605.484375 182.933594 534.851562 C 184.527344 526.503906 186.351562 518.203125 188.40625 509.957031 C 219.113281 516.75 253.101562 521.636719 289.429688 524.582031 C 310.175781 553.777344 331.894531 580.609375 353.785156 604.105469 C 349.132812 608.609375 344.371094 612.992188 339.503906 617.261719 C 310.414062 642.691406 281.269531 660.734375 255.582031 669.808594 Z M 147.445312 465.460938 C 110.890625 452.960938 80.703125 436.722656 60.007812 419 C 41.414062 403.074219 32.027344 387.257812 32.027344 374.429688 C 32.027344 347.128906 72.722656 312.300781 140.601562 288.632812 C 148.839844 285.761719 157.460938 283.054688 166.40625 280.511719 C 175.789062 311.03125 188.09375 342.941406 202.945312 375.210938 C 187.902344 407.957031 175.421875 440.375 165.945312 471.257812 C 159.734375 469.476562 153.566406 467.542969 147.445312 465.460938 Z M 183.695312 218.664062 C 169.605469 146.652344 178.960938 92.328125 202.507812 78.695312 C 227.589844 64.171875 283.046875 84.878906 341.5 136.789062 C 345.3125 140.183594 349.0625 143.644531 352.75 147.171875 C 330.964844 170.566406 309.445312 197.199219 288.886719 226.21875 C 253.628906 229.488281 219.878906 234.738281 188.847656 241.769531 C 186.9375 234.113281 185.21875 226.410156 183.695312 218.667969 Z M 507.070312 298.53125 C 499.742188 285.871094 492.140625 273.367188 484.273438 261.03125 C 508.191406 264.058594 531.109375 268.074219 552.628906 272.984375 C 546.167969 293.695312 538.117188 315.351562 528.636719 337.550781 C 521.707031 324.402344 514.519531 311.394531 507.070312 298.53125 Z M 375.195312 170.066406 C 389.96875 186.074219 404.761719 203.941406 419.3125 223.332031 C 389.796875 221.9375 360.226562 221.933594 330.710938 223.3125 C 345.273438 204.101562 360.195312 186.257812 375.195312 170.066406 Z M 242.480469 298.753906 C 235.125 311.511719 228.066406 324.4375 221.316406 337.527344 C 211.992188 315.402344 204.011719 293.648438 197.496094 272.644531 C 218.882812 267.859375 241.695312 263.945312 265.460938 260.972656 C 257.503906 273.382812 249.84375 285.980469 242.480469 298.75 Z M 266.144531 490.164062 C 241.589844 487.425781 218.4375 483.714844 197.054688 479.054688 C 203.671875 457.675781 211.828125 435.457031 221.351562 412.863281 C 228.132812 425.960938 235.21875 438.894531 242.605469 451.660156 C 250.199219 464.78125 258.066406 477.632812 266.144531 490.164062 Z M 376.082031 581.050781 C 360.902344 564.671875 345.761719 546.550781 330.976562 527.0625 C 345.332031 527.625 359.964844 527.910156 374.835938 527.910156 C 390.117188 527.910156 405.222656 527.570312 420.089844 526.90625 C 405.492188 546.746094 390.753906 564.894531 376.082031 581.050781 Z M 528.9375 411.707031 C 538.960938 434.554688 547.40625 456.652344 554.113281 477.667969 C 532.378906 482.628906 508.910156 486.625 484.179688 489.59375 C 492.105469 477.027344 499.777344 464.308594 507.195312 451.4375 C 514.738281 438.359375 521.988281 425.109375 528.9375 411.707031 Z M 479.457031 435.433594 C 468.097656 455.164062 456.105469 474.523438 443.492188 493.472656 C 420.640625 495.089844 397.742188 495.894531 374.835938 495.882812 C 351.507812 495.882812 328.8125 495.15625 306.960938 493.738281 C 294.019531 474.832031 281.796875 455.441406 270.320312 435.609375 L 270.324219 435.609375 C 258.898438 415.886719 248.226562 395.730469 238.335938 375.195312 C 248.203125 354.65625 258.839844 334.492188 270.226562 314.75 L 270.222656 314.753906 C 281.601562 295.007812 293.726562 275.699219 306.574219 256.875 C 328.867188 255.1875 351.730469 254.308594 374.832031 254.308594 L 374.835938 254.308594 C 398.046875 254.308594 420.9375 255.195312 443.226562 256.894531 C 455.941406 275.691406 467.992188 294.933594 479.347656 314.582031 C 490.769531 334.277344 501.550781 354.34375 511.667969 374.742188 C 501.652344 395.347656 490.910156 415.59375 479.457031 435.433594 Z M 545.519531 77.738281 C 570.621094 92.21875 580.386719 150.613281 564.613281 227.191406 C 563.605469 232.078125 562.476562 237.054688 561.246094 242.101562 C 530.140625 234.917969 496.367188 229.578125 461.007812 226.261719 C 440.40625 196.921875 419.0625 170.246094 397.636719 147.15625 C 403.25 141.742188 409 136.46875 414.878906 131.339844 C 470.226562 83.167969 521.953125 64.144531 545.519531 77.738281 Z M 374.835938 307.476562 C 411.808594 307.476562 441.78125 337.453125 441.78125 374.429688 C 441.78125 411.410156 411.808594 441.386719 374.835938 441.386719 C 337.867188 441.386719 307.894531 411.410156 307.894531 374.429688 C 307.894531 337.453125 337.867188 307.476562 374.835938 307.476562 Z M 374.835938 307.476562 " fill-opacity="1" fill-rule="nonzero"/></svg>