<svg xmlns="http://www.w3.org/2000/svg" xmlns:xlink="http://www.w3.org/1999/xlink" width="1000" zoomAndPan="magnify" viewBox="0 0 750 749.999995" height="1000" preserveAspectRatio="xMidYMid meet" version="1.0"><rect x="-75" width="900" fill="#7ae582" y="-74.999999" height="899.999994" fill-opacity="1"/><path fill="#121212" d="M 490.375 561.394531 C 504.792969 584.8125 520.457031 607.25 553.644531 607.25 C 581.519531 607.25 596.144531 593.394531 596.144531 574.230469 C 596.144531 551.292969 581.019531 543.144531 550.355469 529.792969 L 533.542969 522.625 C 485.019531 502.042969 452.75 476.25 452.75 421.769531 C 452.75 371.5625 491.1875 333.355469 551.25 333.355469 C 594.019531 333.355469 624.75 348.167969 646.917969 386.957031 L 594.542969 420.4375 C 583.019531 399.855469 570.5625 391.75 551.25 391.75 C 531.542969 391.75 519.0625 404.1875 519.0625 420.4375 C 519.0625 440.519531 531.5625 448.644531 560.417969 461.082031 L 577.230469 468.25 C 634.417969 492.605469 666.667969 517.480469 666.667969 573.394531 C 666.667969 633.644531 619.082031 666.667969 555.207031 666.667969 C 492.730469 666.667969 457.25 635.3125 437.5 596.5 Z M 249 563.105469 C 259.542969 581.980469 275.5625 596.5 298.605469 596.5 C 320.644531 596.5 333.332031 587.792969 333.332031 553.9375 L 333.332031 333.332031 L 402.769531 333.332031 L 402.769531 564.605469 C 402.769531 634.75 362.082031 666.667969 302.667969 666.667969 C 248.980469 666.667969 210.230469 630.292969 194.4375 596.5 Z M 249 563.105469 " fill-opacity="1" fill-rule="nonzero"/></svg>