<svg xmlns="http://www.w3.org/2000/svg" xmlns:xlink="http://www.w3.org/1999/xlink" width="1000" zoomAndPan="magnify" viewBox="0 0 750 749.999995" height="1000" preserveAspectRatio="xMidYMid meet" version="1.0"><defs><clipPath id="3487c0f7f9"><path d="M 116.40625 0 L 633.90625 0 L 633.90625 750 L 116.40625 750 Z M 116.40625 0 " clip-rule="nonzero"/></clipPath></defs><g clip-path="url(#3487c0f7f9)"><path fill="#7ae582" d="M 258.886719 0.128906 C 180.203125 0.128906 116.417969 63.878906 116.417969 142.511719 C 116.417969 190.503906 140.175781 232.949219 176.578125 258.746094 C 140.175781 284.539062 116.417969 326.984375 116.417969 374.976562 C 116.417969 422.96875 140.175781 465.414062 176.578125 491.207031 C 140.175781 517.003906 116.417969 559.449219 116.417969 607.441406 C 116.417969 686.078125 180.203125 749.824219 258.886719 749.824219 C 337.570312 749.824219 401.359375 686.078125 401.359375 607.441406 L 401.359375 485.25 C 425.914062 505.320312 457.296875 517.359375 491.492188 517.359375 C 570.175781 517.359375 633.964844 453.613281 633.964844 374.976562 C 633.964844 326.984375 610.203125 284.539062 573.800781 258.746094 C 610.203125 232.949219 633.964844 190.503906 633.964844 142.511719 C 633.964844 63.878906 570.175781 0.128906 491.492188 0.128906 Z M 349.023438 465.054688 L 258.886719 465.054688 C 209.105469 465.054688 168.753906 424.726562 168.753906 374.976562 C 168.753906 325.226562 209.105469 284.898438 258.886719 284.898438 L 349.023438 284.898438 Z M 258.886719 232.59375 L 349.023438 232.59375 L 349.023438 52.433594 L 258.886719 52.433594 C 209.105469 52.433594 168.753906 92.765625 168.753906 142.511719 C 168.753906 192.261719 209.105469 232.59375 258.886719 232.59375 Z M 581.628906 142.511719 C 581.628906 192.230469 541.324219 232.539062 491.589844 232.59375 L 401.359375 232.59375 L 401.359375 52.433594 L 491.492188 52.433594 C 541.273438 52.433594 581.628906 92.765625 581.628906 142.511719 Z M 401.359375 374.867188 C 401.417969 325.203125 441.6875 284.957031 491.382812 284.898438 L 491.578125 284.898438 C 541.320312 284.945312 581.628906 325.257812 581.628906 374.976562 C 581.628906 424.726562 541.273438 465.054688 491.492188 465.054688 C 441.75 465.054688 401.417969 424.785156 401.359375 375.085938 Z M 258.886719 517.359375 C 209.105469 517.359375 168.753906 557.691406 168.753906 607.441406 C 168.753906 657.191406 209.105469 697.519531 258.886719 697.519531 C 308.667969 697.519531 349.023438 657.191406 349.023438 607.441406 L 349.023438 517.359375 Z M 258.886719 517.359375 " fill-opacity="1" fill-rule="evenodd"/></g></svg>