<svg xmlns="http://www.w3.org/2000/svg" xmlns:xlink="http://www.w3.org/1999/xlink" width="1000" zoomAndPan="magnify" viewBox="0 0 750 749.999995" height="1000" preserveAspectRatio="xMidYMid meet" version="1.0"><path fill="#7ae582" d="M 644.476562 420.8125 C 618.4375 420.949219 595.886719 427.195312 576.992188 436.523438 C 570.085938 422.726562 563.074219 410.585938 561.90625 401.5625 C 560.535156 391.03125 558.945312 384.734375 560.605469 372.191406 C 562.261719 359.644531 569.527344 341.867188 569.425781 340.53125 C 569.324219 339.191406 567.800781 332.808594 552.78125 332.691406 C 537.765625 332.589844 524.914062 335.585938 523.410156 339.546875 C 521.902344 343.511719 519.007812 352.433594 517.210938 361.742188 C 514.589844 375.355469 487.230469 423.929688 471.703125 449.324219 C 466.625 439.402344 462.308594 430.664062 461.410156 423.757812 C 460.039062 413.226562 458.449219 406.929688 460.105469 394.386719 C 461.765625 381.839844 469.03125 364.0625 468.929688 362.726562 C 468.824219 361.386719 467.300781 355.003906 452.285156 354.886719 C 437.269531 354.785156 424.417969 357.78125 422.910156 361.742188 C 421.40625 365.707031 419.78125 374.964844 416.714844 383.9375 C 413.632812 392.894531 377.285156 473.90625 367.753906 494.914062 C 362.894531 505.613281 358.679688 514.214844 355.699219 520.074219 C 355.683594 520.054688 355.683594 520.039062 355.683594 520.039062 C 355.683594 520.039062 355.496094 520.429688 355.191406 521.089844 C 352.636719 526.082031 351.128906 528.84375 351.128906 528.84375 C 351.128906 528.84375 351.144531 528.875 351.179688 528.945312 C 349.148438 532.617188 346.980469 536.019531 345.914062 536.019531 C 345.167969 536.019531 343.664062 526.253906 346.234375 512.84375 C 351.652344 484.742188 364.640625 440.925781 364.519531 439.402344 C 364.453125 438.621094 366.941406 430.988281 356.039062 426.992188 C 345.441406 423.113281 341.664062 429.582031 340.699219 429.597656 C 339.769531 429.617188 339.074219 431.886719 339.074219 431.886719 C 339.074219 431.886719 350.875 382.601562 316.558594 382.601562 C 295.089844 382.601562 265.359375 406.082031 250.714844 427.363281 C 241.472656 432.410156 221.683594 443.210938 200.707031 454.742188 C 192.648438 459.175781 184.417969 463.695312 176.613281 467.996094 C 176.089844 467.402344 175.546875 466.828125 175.003906 466.234375 C 133.375 421.828125 56.445312 390.421875 59.695312 330.710938 C 60.878906 309.007812 68.429688 251.851562 207.546875 182.539062 C 321.5 125.757812 412.738281 141.382812 428.5 176.003906 C 451.015625 225.492188 379.742188 317.4375 261.398438 330.710938 C 216.316406 335.773438 192.5625 318.285156 186.652344 311.785156 C 180.441406 304.925781 179.507812 304.621094 177.191406 305.910156 C 173.414062 308.007812 175.800781 314.050781 177.191406 317.65625 C 180.726562 326.851562 195.21875 343.15625 219.9375 351.28125 C 241.691406 358.425781 294.632812 362.335938 358.644531 337.566406 C 430.359375 309.835938 486.347656 232.667969 469.894531 168.183594 C 453.164062 102.597656 344.40625 81.027344 241.472656 117.597656 C 180.136719 139.367188 113.820312 173.53125 66.128906 218.125 C 9.429688 271.152344 0.390625 317.320312 4.113281 336.601562 C 17.351562 405.136719 111.804688 449.761719 149.628906 482.828125 C 147.765625 483.859375 146.003906 484.824219 144.414062 485.707031 C 125.453125 495.085938 53.449219 532.769531 35.433594 572.574219 C 15 617.726562 38.683594 650.128906 54.363281 654.496094 C 102.933594 668.007812 152.777344 643.695312 179.578125 603.742188 C 206.359375 563.804688 203.09375 511.777344 190.800781 488.042969 C 190.648438 487.753906 190.480469 487.464844 190.328125 487.160156 C 195.21875 484.265625 200.214844 481.320312 205.15625 478.410156 C 214.808594 472.738281 224.289062 467.453125 232.5 462.984375 C 227.894531 475.582031 224.527344 490.699219 222.78125 512.523438 C 220.714844 538.15625 231.230469 571.285156 244.976562 584.324219 C 251.039062 590.0625 258.316406 590.199219 262.921875 590.199219 C 278.921875 590.199219 286.21875 576.890625 294.261719 561.144531 C 304.113281 541.84375 312.867188 519.363281 312.867188 519.363281 C 312.867188 519.363281 301.894531 580.074219 331.792969 580.074219 C 342.699219 580.074219 353.652344 565.9375 358.542969 558.742188 C 358.5625 558.828125 358.5625 558.859375 358.5625 558.859375 C 358.5625 558.859375 358.847656 558.386719 359.40625 557.453125 C 360.542969 555.726562 361.183594 554.628906 361.183594 554.628906 C 361.183594 554.628906 361.203125 554.507812 361.234375 554.304688 C 365.621094 546.703125 375.339844 529.367188 389.898438 500.773438 C 408.726562 463.832031 426.773438 417.546875 426.773438 417.546875 C 426.773438 417.546875 428.449219 428.855469 433.949219 447.578125 C 437.183594 458.582031 444.058594 470.757812 449.492188 482.4375 C 445.125 488.5 442.449219 491.96875 442.449219 491.96875 C 442.449219 491.96875 442.464844 492.039062 442.515625 492.15625 C 439.03125 496.792969 435.117188 501.789062 431.019531 506.664062 C 416.15625 524.355469 398.464844 544.570312 396.09375 550.394531 C 393.300781 557.269531 393.960938 562.3125 399.363281 566.394531 C 403.308594 569.355469 410.316406 569.832031 417.648438 569.339844 C 431.003906 568.441406 440.382812 565.125 445.023438 563.109375 C 452.25 560.554688 460.664062 556.539062 468.554688 550.734375 C 483.132812 540.015625 491.917969 524.695312 491.070312 504.378906 C 490.597656 493.1875 487.042969 482.097656 482.523438 471.636719 C 483.84375 469.742188 485.164062 467.808594 486.5 465.878906 C 509.476562 432.292969 527.300781 395.382812 527.300781 395.382812 C 527.300781 395.382812 528.980469 406.691406 534.480469 425.417969 C 537.257812 434.882812 542.757812 445.226562 547.703125 455.351562 C 526.101562 472.90625 512.707031 493.308594 508.054688 506.683594 C 499.453125 531.433594 506.191406 542.640625 518.820312 545.199219 C 524.542969 546.347656 532.636719 543.722656 538.714844 541.152344 C 546.28125 538.644531 555.371094 534.464844 563.871094 528.214844 C 578.449219 517.5 592.464844 502.5 591.621094 482.199219 C 591.230469 472.957031 588.726562 463.78125 585.320312 454.976562 C 603.640625 447.34375 627.34375 443.109375 657.546875 446.632812 C 722.335938 454.199219 735.035156 494.644531 732.613281 511.574219 C 730.175781 528.503906 716.597656 537.816406 712.042969 540.625 C 707.503906 543.4375 706.117188 544.417969 706.488281 546.5 C 707.046875 549.53125 709.148438 549.429688 713.023438 548.769531 C 718.359375 547.871094 747.039062 535.003906 748.273438 503.753906 C 749.8125 464.035156 711.804688 420.457031 644.476562 420.8125 Z M 145.089844 589.164062 C 123.621094 612.578125 93.65625 621.417969 80.789062 613.96875 C 66.90625 605.925781 72.410156 571.457031 98.734375 546.601562 C 114.785156 531.46875 135.507812 517.515625 149.253906 508.933594 C 152.386719 507.054688 156.976562 504.292969 162.5625 500.941406 C 163.492188 500.417969 164.019531 500.128906 164.019531 500.128906 L 164 500.097656 C 165.085938 499.453125 166.183594 498.792969 167.320312 498.097656 C 176.917969 533.464844 167.625 564.597656 145.089844 589.164062 Z M 301.4375 482.894531 C 293.972656 501.113281 278.328125 547.738281 268.796875 545.230469 C 260.621094 543.082031 255.644531 507.648438 267.171875 472.769531 C 272.960938 455.214844 285.355469 434.238281 292.636719 426.09375 C 304.351562 412.992188 317.25 408.707031 320.382812 414.023438 C 324.363281 420.796875 306.128906 471.46875 301.4375 482.894531 Z M 430.597656 544.519531 C 427.433594 546.179688 424.519531 547.210938 423.183594 546.417969 C 422.183594 545.824219 424.488281 543.640625 424.488281 543.640625 C 424.488281 543.640625 440.636719 526.253906 447.003906 518.347656 C 450.710938 513.742188 454.996094 508.273438 459.667969 502.179688 C 459.699219 502.789062 459.71875 503.398438 459.71875 503.988281 C 459.683594 524.8125 439.570312 538.867188 430.597656 544.519531 Z M 530.097656 521.835938 C 527.726562 520.15625 528.132812 514.722656 535.902344 497.777344 C 538.949219 491.121094 545.925781 479.933594 558.011719 469.234375 C 559.417969 473.632812 560.265625 477.851562 560.25 481.777344 C 560.097656 507.984375 541.40625 517.769531 530.097656 521.835938 Z M 530.097656 521.835938 " fill-opacity="1" fill-rule="nonzero"/></svg>