<svg xmlns="http://www.w3.org/2000/svg" xmlns:xlink="http://www.w3.org/1999/xlink" width="1000" zoomAndPan="magnify" viewBox="0 0 750 749.999995" height="1000" preserveAspectRatio="xMidYMid meet" version="1.0"><path fill="#7ae582" d="M 750 645.832031 C 750 703.375 703.375 750 645.832031 750 L 104.167969 750 C 46.644531 750 0 703.375 0 645.832031 L 0 104.167969 C 0 46.625 46.644531 0 104.167969 0 L 645.832031 0 C 703.375 0 750 46.625 750 104.167969 Z M 750 645.832031 " fill-opacity="1" fill-rule="nonzero"/><path fill="#121212" d="M 563.125 408.332031 C 549.582031 389.582031 530 376.667969 504.792969 369.792969 C 504.792969 369.792969 526.042969 362.082031 545.207031 333.332031 C 556.667969 315 562.5 292.917969 562.5 267.082031 C 562.5 222.292969 546.25 187.917969 513.75 164.375 C 481.25 140.832031 444.582031 125 382.292969 125 L 187.5 125 L 187.5 625 L 404.792969 625 C 463.75 624.582031 508.125 611.875 538.332031 587.5 C 568.332031 562.707031 583.332031 526.042969 583.332031 477.082031 C 583.332031 450 576.667969 427.082031 563.125 408.332031 Z M 312.5 208.332031 C 312.5 208.332031 399.375 208.332031 401.042969 208.332031 C 432.707031 208.332031 458.332031 233.957031 458.332031 265.625 C 458.332031 297.292969 432.707031 322.917969 401.042969 322.917969 C 399.375 322.917969 312.5 322.917969 312.5 322.917969 Z M 416.667969 541.667969 L 312.5 541.667969 L 312.5 416.667969 L 416.667969 416.667969 C 451.25 416.667969 479.167969 444.582031 479.167969 479.167969 C 479.167969 513.75 451.25 541.667969 416.667969 541.667969 Z M 416.667969 541.667969 " fill-opacity="1" fill-rule="nonzero"/></svg>